<?xml version="1.0" encoding="UTF-8"?><svg id="a" xmlns="http://www.w3.org/2000/svg" width="405.59" height="50.18" viewBox="0 0 405.59 50.18"><defs><style>.b{fill:#d9d9d9;stroke-width:0px;}</style></defs><path class="b" d="m35.84,9.63v2.82h8.44v8.43h2.81v8.46h-2.84v-11.25h-5.62v-5.62h-11.25v-2.81h0v-.03h8.46m.11,11.25h0v.03h-.14v-.03h.14m-2.81,2.81h0v.03h-.14v-.03h.14m-2.83,2.8v.03h0s-.02.01-.02.01h-.1v-.04h.12m-2.82,2.83h0v.03h-.12v-.03h.12m-2.81,2.81h0v.03h-.12v-.03h.12m-2.82,2.81h0v.02h-.11v-.02h.11m-2.8,2.81h0v.02h-.12v-.02h.12m-2.83,2.81h0v.02h-.11v-.02h.11M38.64,6.83h-14.06v2.81h-2.81v2.81h2.81v2.81h11.25v2.81h-2.81v2.81h-2.81v2.8h-2.81v2.83h-2.81v2.81h-2.81v2.81h-2.81v2.81h-2.81v2.81h-2.81v5.62h5.71v-2.81h2.83v-2.81h2.8v-2.81h2.82v-2.81h2.81v-2.81h2.82v-2.81h2.83v-2.81h2.81v-2.81h2.7v11.25h2.81v2.81h2.81v-2.81h2.81v-14.06h-2.81v-8.43h-8.44v-2.82h0Z"/><path class="b" d="m101.42,9.63h0v2.81h2.81v2.84h-2.81v2.8h0s-.01.01-.01.01h-2.8v2.8h0s-.01.01-.01.01h-.01v-.03h-2.81s-2.81.03-2.81.03h0v-5.62h0v-.03h2.81v-2.8h0s.01-.01.01-.01h2.8v-2.8h0s2.84-.01,2.84-.01m-11.25,14.06h0v.03h-.03v-.03h.03m-2.84,2.81h.03v.02h-.03v-.02m-2.79,2.81h0v.02h-.02s0-.02,0-.02c0,0,.02,0,.02,0m-2.81,2.81h0v.03h-.03v-.03h.03m-2.81,2.81h0v.02h-.03v-.02h.03m-2.81,2.81h0v2.84h-.03v-2.81h-2.81v-.02h2.84m28.11-30.93h-8.44v2.81h-2.81v2.81h-2.81v2.81h-2.81v2.81h2.81v2.81h-2.81v2.81h-2.81s0,2.81,0,2.81c0,0-1.27.03-2.11.03-.37,0-.65,0-.7-.03.04.18,0,2.8,0,2.8h-2.81v2.81h-2.81v2.81h-5.62v5.62h2.81v2.81h5.62v-5.62h2.81v-2.81h2.81v-2.81h2.81v-2.81h2.81v-2.81h2.81v-2.81h2.81s0,2.81,0,2.81h2.81v-2.81h2.81v-2.81h2.81v-2.81h2.81v-8.44h-2.81v-2.81h0Zm-22.5,19.69s0,0,0,0c0,0,0,0,0,0,0,0,0,0,0,0h0Z"/><path class="b" d="m151.53,8.22h0v2.81h2.81v5.62h2.81v5.62h2.81s-.01.01-.01.01h-2.8v2.83h-.03v-2.81h-8.41v2.8h0s-.01.01-.01.01h-.01v-5.62h-2.81v-2.81h-2.81v-.03h2.81v-2.8h0s.01-.01.01-.01h2.8v-2.8h0s.01-.01.01-.01h2.8v-2.8h0s.03-.01.03-.01m-5.62,19.69h0v.03h-.03v-.03h.03m-2.81,2.81h0v.02h-.02v-.02h.02m-2.81,2.81h0v.03h-.03v-.03h.03m-2.81,2.81h0v.03h-.02v-.03h.02m-2.81,2.81h0v.02h-.03v-.02h.03m-2.81,2.81h0v.03h-.02v-.03h.02m22.49-36.55h-5.62v2.81h-2.81v2.81h-2.81v2.81h-2.81v5.62h2.81v2.81h2.81v2.81h-2.81v2.81h-2.81v2.81h-2.81v2.81h-2.81v2.81h-2.81v2.81h-2.81v5.62h5.62v-2.81h2.81v-2.81h2.81v-2.81h2.81v-2.81h2.81v-2.81h2.81v-2.81h2.81v-2.81h2.81v2.81h5.62v-2.83h2.81v-5.61h-2.81v-5.62h-2.81v-5.62h-2.81v-2.81h0Z"/><path class="b" d="m223.29,5.41v2.84h-2.81v2.8h0s-.01.01-.01.01h-2.8v2.8h0s-.01.01-.01.01h-2.8v2.8h0s-.01.01-.01.01h-2.8v2.8h0s-.01.01-.01.01h-2.8v2.8h0s-.01.01-.01.01h-2.8v2.8h0s-.01.01-.01.01h-2.8v2.8h0s-.01.01-.01.01h-2.8v8.41h2.81v.03h-2.84v-2.81h-5.62v-5.62h-2.81v-2.83h0s.01-.01.01-.01h.01v2.81h8.41v-2.8h0s.01-.01.01-.01h2.8v-2.8h0s.01-.01.01-.01h2.8v-2.8h0s.01-.01.01-.01h2.8v-2.8h0s.01-.01.01-.01h2.8v-2.8h0s.01-.01.01-.01h2.8v-2.8h0s.01-.01.01-.01h2.8v-2.8h0s.01-.01.01-.01h2.8v-2.8h0s2.84-.01,2.84-.01m-33.75,16.88h0v.03h-.02v-.03h.02m2.81,14.06h0v.03h-.03v-.03h.03m14.06,2.81v.02h-.02v-.02h.02m-16.88,0h0v.02h-.02v-.02h.02m-2.81,2.81h0v2.84h-2.84v-2.84h2.84M226.09,2.61h-8.44v2.81h-2.81v2.81h-2.81v2.81h-2.81v2.81h-2.81v2.81h-2.81v2.81h-2.81v2.81h-2.81v2.81h-2.81v-2.81h-2.81v-2.81h-5.62v5.62h2.81v5.62h2.81v2.81h-2.81v2.81h-2.81v2.81h-5.62v8.44h8.44v-5.62h2.81v-2.81h2.81v-2.81h2.81v2.81h5.62v2.81h5.62v-5.62h-2.81v-2.81h-2.81v-2.81h2.81v-2.81h2.81v-2.81h2.81v-2.81h2.81v-2.81h2.81v-2.81h2.81v-2.81h2.81v-2.81h2.81V2.61h0Z"/><path class="b" d="m307.49,6.83h0v2.81h2.81v.03h-5.62v16.85h5.62v.02h-2.81v2.8h0s-.02.01-.02.01h0v-2.81h-2.81v-2.81h-2.81v-11.27h2.81v-2.8h0s.01-.01.01-.01h2.8v-2.8h0s.02-.01.02-.01m5.63,5.62v.03h-.03v-.03h.03m0,11.25v.02h-.03v-.02h.03m11.22,2.8h.02s2.46.01,2.46.01h.33s0,0,0,0h.02v5.62h2.81v5.62h2.81v.02h-2.81v2.8h0s-5.64.01-5.64.01h-2.8v2.78h-.02v-2.78h-2.81v-2.81h-2.81v-2.84h2.81v-2.8h0s.01-.01.01-.01h2.8v-2.8h0s.01-.01.01-.01h2.8v-2.83m-14.05-22.47h-5.62v2.81h-2.81v2.81h-2.81v16.88h2.81v2.81h2.81v2.81h5.62v-2.81h2.81v-2.81h2.81v-5.62h-5.63v2.81h-2.81v-11.25h2.81v2.81h5.63v-5.62h-2.81v-2.81h-2.81v-2.81h0Zm16.88,16.88h-2.81v2.8l-2.81-.02v2.84h-2.81v2.81h-2.81v2.81h-2.81v8.44h2.81v2.81h2.81v2.78h5.62v-2.78h8.44v-2.81h2.81v-5.62h-2.81v-5.63h-2.81v-5.62h-2.81v-2.81h0Z"/><path class="b" d="m382.92,11.03h0v.03h-2.81v2.8h0s-.01.01-.01.01h-2.8v2.8h0s-.01.01-.01.01h-2.8v2.77l-2.87.04-2.76.04v2.76h0s-.01.01-.01.01h-2.8v8.42h0s-.01.01-.01.01h-2.82v-2.87h.03s2.78-.02,2.78-.02v-5.58h2.81v-2.8h0s.01-.01.01-.01h2.8v-2.8h0s.01-.01.01-.01h2.8v-2.8h0s.01-.01.01-.01h2.8v-2.8h0s5.65-.01,5.65-.01m5.62,5.62v5.62l-2.81-.03v2.87h-2.81v2.8h0s-.01.01-.01.01h-2.8v2.8h0s-.01.01-.01.01h-2.8v2.8h0s-2.83.01-2.83.01h-2.8v2.8h0s-2.84.01-2.84.01v-2.82h0s.01-.01.01-.01h8.42v-2.8h0s.01-.01.01-.01h2.8v-5.62h2.81v-2.8h0s.01-.01.01-.01h2.8v-2.8h0s.01-.01.01-.01h2.8v-2.8h0s.01-.01.01-.01h.01m-.01-8.42h-14.06v2.81h-2.81v2.81h-2.81v2.81h-2.81v2.81h-2.81v5.6l-2.81.02v8.45h-2.81v5.62h2.81v-5.62h5.62v5.62h-5.62v2.81h5.62v-2.81h8.44v-2.81h5.62v-2.81h2.81v-2.81h2.81v-2.81h2.81v-2.84l2.81.03v-14.06h-2.81v2.81h-2.81v2.81h-2.81v2.81h-2.81v2.81h-2.81v5.62h-2.81v2.81h-5.62v-5.62h2.81v-2.81l5.62-.08v-2.73h2.81v-2.81h2.81v-2.81h2.81v-2.81h2.81v-2.81h0Z"/><polygon class="b" points="243.31 39.17 243.31 44.79 248.93 44.79 248.93 41.98 251.75 41.98 251.75 39.17 254.56 39.17 254.56 36.36 257.37 36.36 257.37 33.54 260.18 33.54 260.18 30.73 263 30.73 263 27.92 265.81 27.92 265.81 25.11 268.62 25.09 268.62 22.29 271.43 22.29 274.25 22.29 274.25 19.48 277.06 19.48 277.06 11.04 268.62 11.04 268.62 8.23 265.81 8.23 265.81 5.42 257.37 5.42 257.37 8.23 254.56 8.23 254.56 11.04 257.37 11.04 257.37 13.86 263 13.86 263 16.67 265.81 16.67 265.81 19.48 263 19.48 263 22.29 260.18 22.29 260.18 25.09 257.37 25.09 257.37 27.92 254.56 27.92 254.56 30.73 251.75 30.73 251.75 33.54 248.93 33.54 248.93 36.36 246.12 36.36 246.12 39.17 243.31 39.17"/></svg>