<?xml version="1.0" encoding="utf-8"?>
<svg version="1.1" xmlns="http://www.w3.org/2000/svg" xmlns:xlink="http://www.w3.org/1999/xlink"
	 viewBox="-1 -1 23 27" style="enable-background:new 0 0 21 25;" xml:space="preserve">
<path d="M1,22.9c0,0.3,0.3,0.6,0.6,0.6H5c0.3,0,0.6-0.3,0.6-0.6v-3.2c1.5,0.9,3.2,1.4,5,1.4c5.3,0,9.7-4.3,9.7-9.7S16,1.9,10.7,1.9
	c-2.3,0-4.2,0.2-6,0.5c0,0-1.5-0.5-1.7-0.5H1.6C1.3,1.9,1,2.1,1,2.4L1,22.9L1,22.9z M10.7,16.6c-2.8,0-5-2.3-5-5s2.3-5,5-5
	c2.8,0,5,2.3,5,5S13.5,16.6,10.7,16.6z"/>
</svg>
