<?xml version="1.0" encoding="UTF-8"?><svg id="c" xmlns="http://www.w3.org/2000/svg" width="700" height="200" xmlns:xlink="http://www.w3.org/1999/xlink" viewBox="0 0 700 200"><defs><style>.ar{filter:url(#n);}.ar,.as,.at,.au,.av,.aw,.ax,.ay,.az,.ba,.bb,.bc,.bd,.be,.bf,.bg,.bh,.bi,.bj,.bk{stroke-width:0px;}.ar,.au,.av,.ax,.ay,.ba,.bb,.bd,.be,.bg,.bi{fill:#31332f;}.as{filter:url(#al);}.at{filter:url(#an);}.au{filter:url(#l);}.av{filter:url(#t);}.aw{filter:url(#ab);}.ax{filter:url(#v);}.ay{filter:url(#d);}.az{filter:url(#aj);}.ba{filter:url(#p);}.bb{filter:url(#j);}.bc{filter:url(#ap);}.bd{filter:url(#f);}.be{filter:url(#h);}.bf{filter:url(#ah);}.bg{filter:url(#r);}.bh{filter:url(#z);}.bi{filter:url(#x);}.bj{filter:url(#af);}.bk{filter:url(#ad);}</style><filter id="d" filterUnits="userSpaceOnUse"><feOffset dx="0" dy="0"/><feGaussianBlur result="e" stdDeviation="3"/><feFlood flood-color="#000" flood-opacity=".4"/><feComposite in2="e" operator="in"/><feComposite in="SourceGraphic"/></filter><filter id="f" filterUnits="userSpaceOnUse"><feOffset dx="0" dy="0"/><feGaussianBlur result="g" stdDeviation="3"/><feFlood flood-color="#000" flood-opacity=".4"/><feComposite in2="g" operator="in"/><feComposite in="SourceGraphic"/></filter><filter id="h" filterUnits="userSpaceOnUse"><feOffset dx="0" dy="0"/><feGaussianBlur result="i" stdDeviation="3"/><feFlood flood-color="#000" flood-opacity=".4"/><feComposite in2="i" operator="in"/><feComposite in="SourceGraphic"/></filter><filter id="j" filterUnits="userSpaceOnUse"><feOffset dx="0" dy="0"/><feGaussianBlur result="k" stdDeviation="3"/><feFlood flood-color="#000" flood-opacity=".4"/><feComposite in2="k" operator="in"/><feComposite in="SourceGraphic"/></filter><filter id="l" filterUnits="userSpaceOnUse"><feOffset dx="0" dy="0"/><feGaussianBlur result="m" stdDeviation="3"/><feFlood flood-color="#000" flood-opacity=".4"/><feComposite in2="m" operator="in"/><feComposite in="SourceGraphic"/></filter><filter id="n" filterUnits="userSpaceOnUse"><feOffset dx="0" dy="0"/><feGaussianBlur result="o" stdDeviation="3"/><feFlood flood-color="#000" flood-opacity=".4"/><feComposite in2="o" operator="in"/><feComposite in="SourceGraphic"/></filter><filter id="p" filterUnits="userSpaceOnUse"><feOffset dx="0" dy="0"/><feGaussianBlur result="q" stdDeviation="3"/><feFlood flood-color="#000" flood-opacity=".4"/><feComposite in2="q" operator="in"/><feComposite in="SourceGraphic"/></filter><filter id="r" filterUnits="userSpaceOnUse"><feOffset dx="0" dy="0"/><feGaussianBlur result="s" stdDeviation="3"/><feFlood flood-color="#000" flood-opacity=".4"/><feComposite in2="s" operator="in"/><feComposite in="SourceGraphic"/></filter><filter id="t" filterUnits="userSpaceOnUse"><feOffset dx="0" dy="0"/><feGaussianBlur result="u" stdDeviation="3"/><feFlood flood-color="#000" flood-opacity=".4"/><feComposite in2="u" operator="in"/><feComposite in="SourceGraphic"/></filter><filter id="v" filterUnits="userSpaceOnUse"><feOffset dx="0" dy="0"/><feGaussianBlur result="w" stdDeviation="3"/><feFlood flood-color="#000" flood-opacity=".4"/><feComposite in2="w" operator="in"/><feComposite in="SourceGraphic"/></filter><filter id="x" filterUnits="userSpaceOnUse"><feOffset dx="0" dy="0"/><feGaussianBlur result="y" stdDeviation="3"/><feFlood flood-color="#000" flood-opacity=".4"/><feComposite in2="y" operator="in"/><feComposite in="SourceGraphic"/></filter><filter id="z" filterUnits="userSpaceOnUse"><feOffset dx="0" dy="0"/><feGaussianBlur result="aa" stdDeviation="3"/><feFlood flood-color="#000" flood-opacity=".4"/><feComposite in2="aa" operator="in"/><feComposite in="SourceGraphic"/></filter><filter id="ab" filterUnits="userSpaceOnUse"><feOffset dx="0" dy="0"/><feGaussianBlur result="ac" stdDeviation="3"/><feFlood flood-color="#000" flood-opacity=".4"/><feComposite in2="ac" operator="in"/><feComposite in="SourceGraphic"/></filter><filter id="ad" filterUnits="userSpaceOnUse"><feOffset dx="0" dy="0"/><feGaussianBlur result="ae" stdDeviation="3"/><feFlood flood-color="#000" flood-opacity=".4"/><feComposite in2="ae" operator="in"/><feComposite in="SourceGraphic"/></filter><filter id="af" filterUnits="userSpaceOnUse"><feOffset dx="0" dy="0"/><feGaussianBlur result="ag" stdDeviation="3"/><feFlood flood-color="#000" flood-opacity=".4"/><feComposite in2="ag" operator="in"/><feComposite in="SourceGraphic"/></filter><filter id="ah" filterUnits="userSpaceOnUse"><feOffset dx="0" dy="0"/><feGaussianBlur result="ai" stdDeviation="3"/><feFlood flood-color="#000" flood-opacity=".4"/><feComposite in2="ai" operator="in"/><feComposite in="SourceGraphic"/></filter><filter id="aj" filterUnits="userSpaceOnUse"><feOffset dx="0" dy="0"/><feGaussianBlur result="ak" stdDeviation="3"/><feFlood flood-color="#000" flood-opacity=".4"/><feComposite in2="ak" operator="in"/><feComposite in="SourceGraphic"/></filter><filter id="al" filterUnits="userSpaceOnUse"><feOffset dx="0" dy="0"/><feGaussianBlur result="am" stdDeviation="3"/><feFlood flood-color="#000" flood-opacity=".4"/><feComposite in2="am" operator="in"/><feComposite in="SourceGraphic"/></filter><filter id="an" filterUnits="userSpaceOnUse"><feOffset dx="0" dy="0"/><feGaussianBlur result="ao" stdDeviation="3"/><feFlood flood-color="#000" flood-opacity=".4"/><feComposite in2="ao" operator="in"/><feComposite in="SourceGraphic"/></filter><filter id="ap" filterUnits="userSpaceOnUse"><feOffset dx="0" dy="0"/><feGaussianBlur result="aq" stdDeviation="3"/><feFlood flood-color="#000" flood-opacity=".4"/><feComposite in2="aq" operator="in"/><feComposite in="SourceGraphic"/></filter></defs><path class="ay" d="m164.03,190H23.27c-.83,0-1.5-.67-1.5-1.5V41.83c0-.83.67-1.5,1.5-1.5h140.76c.83,0,1.5.67,1.5,1.5v146.67c0,.83-.67,1.5-1.5,1.5Zm-17.04-137.32c-.29,0-1.36,1.07-3.3,3.61l-1.36,1.82-3.15,4.51h-27.68c1.34-1.96,2.69-4.37,4.05-6.93l3.01-.9c1.65-.44,2.11-3.15.15-4.37-2.26-1.5-6.16-3.3-12.32-5.7-2.57-.92-4.22,0-4.66,2.69-.92,5.43-2.57,11.13-5.12,17.46-1.96-1.96-4.97-4.97-7.98-7.52-.75-.75-1.5-1.36-2.11-1.96-1.34-1.21-3.01-.75-4.51,1.36l-4.34,5.87h-21.52c1.19-2.26,2.55-4.68,3.45-6.93l3.18-.9c1.65-.44,2.09-3.15.15-4.37-2.26-1.5-6.16-3.3-12.34-5.87-2.55-.9-4.2,0-4.66,2.57-.75,3.3-1.65,7.23-3.15,11.89-1.8,5.41-3.91,10.67-6.31,15.65-3.18,5.56-6.33,10.53-9.63,15.04-1.36,1.94-1.65,3.15-.9,3.91s2.09.61,3.91-.9c8.13-5.87,15.65-13.7,22.25-23.62h8.59c3.15,5.12,4.97,9.63,5.41,13.85.29,1.94.75,3.3,2.55,4.34,5.72,3.17,10.69-1.8,9.34-9.02-.61-3.15-2.11-5.85-4.66-8.1-.67-.54-1.23-.88-1.63-1.07h21.33c.75,0,1.36-.15,1.8-.44-2.55,5.41-5.1,10.07-7.81,14.29-1.21,1.94-1.5,3.15-.75,3.91s2.11.44,3.91-.9c5.72-4.22,11.28-9.78,16.86-16.86h8.27c4.05,5.26,6.31,9.78,7.06,14.14.31,1.96.9,3.3,2.72,4.22,6.02,2.4,10.82-2.57,9.17-9.94-.75-3.15-2.4-5.56-4.8-7.52-.44-.36-.86-.65-1.27-.9h28.49c2.69,0,3.61-1.04,3.76-3.45,0-3.47-11.59-12.95-13.39-12.95ZM45.77,186.1c2.11,0,4.36-.45,7.22-1.65.9-.45,1.65-.9,2.41-1.35,1.5-1.2,1.96-2.71,1.8-4.66-.45-10.53-.9-21.66-1.05-33.24v-27.38c1.35-.3,2.56-.6,3.31-1.35,1.66-1.81.3-3.76-1.96-4.66l-2.41-.9c3.61-6.17,6.77-12.33,9.33-18.65l3.16-.9c1.5-.6,1.96-3.31.15-4.51-2.26-1.5-6.17-3.31-12.33-5.72-2.56-1.05-4.21-.15-4.66,2.56-.6,3.16-1.5,7.22-2.86,12.03-1.65,5.72-3.61,10.98-5.71,15.94-4.81,10.83-9.93,19.85-15.19,27.37-1.35,1.96-1.65,3.31-.9,3.91.9.75,2.26.45,3.91-1.05,4.21-3.76,8.72-8.57,13.54-14.29v18.8c-.15,10.98-.6,21.66-1.35,32.64-.15,1.2-.15,2.26-.15,3.01,0,2.26,1.5,4.06,3.76,4.06Zm24.07-15.19c2.86,0,7.07-1.05,9.63-3.16,1.5-1.35,1.65-2.86,1.5-4.66-.45-10.53-.9-21.51-1.05-33.24v-23.16l2.26-1.35c1.5-1.05,1.05-3.76-.45-4.51-2.11-1.2-6.02-2.41-11.88-4.06-2.71-.75-4.36.6-3.91,3.46.9,7.37,1.35,16.4,1.35,27.22v18.35c-.3,8.72-.6,15.79-1.05,21.06,0,2.26.9,4.06,3.61,4.06Zm-3.76,13.39c.45,1.35,1.81,1.66,4.21,1.05,20.46-5.11,36.1-12.94,47.98-23.92,7.67,10.08,16.85,17.45,28.28,22.56,2.26,1.05,3.76.15,4.66-2.26,1.35-3.76,3.76-6.62,7.37-8.27,1.81-.9,2.86-1.5,3.16-2.86.3-1.05-.75-2.11-3.16-2.86-12.93-3.61-23.61-8.87-31.59-15.49,8.27-10.83,14.29-24.97,17.45-41.96h12.18c2.56,0,3.46-1.05,3.91-3.31v-.15c0-3.46-11.43-12.93-13.24-12.93-.3,0-1.5,1.2-3.46,3.91q-.45.75-1.05,1.5l-3.16,4.51h-29.03c1.65-3.31,3.46-7.52,5.41-12.64l3.01-1.2c1.81-.75,1.35-3.46-.15-4.36-2.26-1.35-6.47-3.01-13.09-5.26-2.56-.9-4.21.3-4.51,2.86-.3,3.46-.9,7.52-2.11,12.33-1.35,6.02-2.86,11.28-4.81,16.39-3.46,9.02-7.37,17-11.73,23.92-1.35,2.11-1.5,3.46-.6,4.06s2.11.3,3.76-1.2c4.96-4.66,10.08-10.53,15.04-18.05,3.16,12.48,6.92,23.01,11.13,30.83-9.48,12.03-23.91,21.96-43.17,29.48-2.26.9-3.16,1.96-2.71,3.31Zm51.59-41.06c-6.32-7.97-11.13-16.55-14.44-26.32.75-1.05,1.96-3.01,3.61-5.71l.45-.9h21.81c-1.8,12.48-5.56,23.31-11.43,32.94Z"/><path class="bd" d="m236.29,149.56c.6-8.27,1.05-16.55,1.2-24.67v-13.24c-13.99,15.64-31.74,27.37-54.15,35.95-2.41.9-3.91.75-4.66-.45-.75-1.05.15-2.56,2.56-4.06,9.33-5.72,17.75-12.48,25.12-20.16,7.97-7.97,14.29-16.24,19.25-24.52h-20.16c-6.02.15-12.18.6-18.65,1.5-2.41.45-4.21-.45-5.26-2.71l-.75-1.35c-1.5-3.01-.15-5.11,3.31-4.81,4.36.45,9.33.6,14.89.75h38.5v-29.18h-23.46c-6.02.15-12.18.6-18.65,1.5-2.41.45-4.21-.45-5.26-2.71l-.75-1.35c-1.5-3.01-.15-5.11,3.31-4.81,4.36.45,9.33.6,14.89.75h29.93c0-5.41-.3-10.08-.75-13.84-.3-3.16,1.35-4.66,4.36-3.91,7.22,1.65,11.88,3.16,14.59,4.51,1.66.75,2.71,3.76.9,4.66l-2.11,1.35v7.22h27.83l2.56-3.61c1.05-1.5,1.5-2.26,2.11-3.01.3-.3.6-.75.75-.9,2.26-3.16,3.46-4.51,3.76-4.51,1.65,0,15.34,11.28,15.34,15.04,0,.15.15,1.2-1.05,2.56-.75.75-1.66,1.05-3.01,1.05h-48.28v29.18h4.66c1.96,0,2.86,1.65,2.86,1.2,0,0,0-.75.15-1.05l.45-1.05c3.61-9.93,5.41-18.35,5.87-26.02.15-3.01,1.96-4.21,4.96-3.31,7.82,2.56,12.93,4.36,15.64,5.87,1.8.9,2.41,4.06.45,4.66l-3.16,1.35c-5.11,6.32-11.13,12.48-17.75,18.35h20.16l2.56-3.61c1.05-1.5,1.5-2.26,2.11-3.01.3-.3.6-.75.75-.9,2.26-3.16,3.46-4.51,3.76-4.51,1.65,0,15.49,11.28,15.49,15.04v.15c-.45,2.41-1.35,3.46-3.91,3.46h-49.48c5.41,6.17,13.09,12.03,23.31,17.45,8.42,4.51,17.75,7.97,27.98,10.23,2.56.6,4.06,1.65,3.76,2.86-.3,1.35-1.5,2.26-3.61,3.31-4.06,1.96-7.07,5.56-8.87,10.38-1.05,2.71-2.71,3.76-5.26,2.41-18.8-9.48-32.64-24.82-41.51-46.63h-1.35v15.34c.3,12.64.6,22.56.9,30.08.15,1.96,0,3.46-1.5,4.96-.9,1.05-2.26,1.81-3.91,2.56-3.61,1.66-6.62,2.41-9.33,2.41-3.61,0-4.36-1.96-4.36-4.21Zm-21.66-102.73c-.75-1.81-.3-2.71-.3-3.31v-.9c0-.6.15-1.35.15-1.96.15-.6.15-1.05.15-1.5l.15-1.65v-3.31h-11.73c-5.56.15-11.58.6-17.45,1.5-2.41.3-4.21-.45-5.26-2.71l-.75-1.66c-1.35-3.16,0-4.96,3.31-4.66,4.51.45,9.48.6,15.19.75h16.7c0-5.11-.15-9.48-.6-13.39-.3-3.01,1.2-4.51,4.36-3.76,7.37,1.65,12.18,3.01,14.59,4.21,1.81.75,2.41,3.76.6,4.96l-2.56,1.5v6.47h29.48c0-5.11-.15-9.48-.6-13.39-.3-3.01,1.2-4.51,4.36-3.91,7.52,1.65,12.48,3.01,15.04,4.21,1.8.75,2.41,3.76.45,4.96l-2.56,1.65v6.47h13.09l3.76-5.41,1.35-1.8c2.26-3.16,3.46-4.51,3.76-4.51,1.66,0,14.59,11.13,14.59,14.89,0,.15.15,1.2-1.05,2.71-.6.6-1.5.9-2.86.9h-32.64v2.11c.15,1.05.15,2.11.15,3.46l.15,1.2q0,.6.15,1.05c-.15,2.56-1.5,3.61-4.51,4.51-3.16.9-6.32,1.35-9.93,1.35-1.65,0-2.56-.9-3.01-1.96-.6-1.81-.15-2.71-.15-3.16v-.75c0-.6.15-1.2.15-1.81.15-.6.15-.9.15-1.35l.15-1.5v-3.16h-29.48v2.11c.15.75.15,2.11.15,3.16,0,.45,0,.75.15,1.05.15,1.96.45,3.61-.9,5.11-.75.6-1.8,1.05-3.31,1.65-3.16.9-6.32,1.35-9.78,1.35-1.65,0-2.41-.75-2.86-1.8Zm-1.2,44.97c-1.81-1.2-2.26-2.86-2.41-4.96-.45-6.32-2.41-13.24-6.32-20.76-1.2-2.56-1.5-4.06-.9-4.36.75-.45,1.96-.3,4.06.45,6.62,2.41,11.58,5.41,15.49,10.23,3.01,3.61,4.36,8.42,3.61,12.78-.9,4.51-3.01,6.92-5.87,7.97-2.86.75-5.11.6-7.67-1.35Z"/><path class="be" d="m387.6,183.7c-.3-4.06-1.05-6.92-2.26-9.18-1.05-1.5-3.31-3.01-6.62-4.06-2.41-.9-3.61-1.81-3.61-3.31,0-1.35,1.5-2.26,4.36-2.11,3.16.15,6.17.45,9.33.6,2.26,0,2.86-.6,2.86-1.35v-32.49c-3.16,2.11-6.02,4.06-8.42,5.57,0,0-3.91,1.65-4.96-1.66l-3.76-12.18c-.75-2.56.15-4.36,2.86-5.11,3.61-1.05,8.42-2.41,14.29-4.21v-26.92h-5.41c-1.5.15-3.16.3-4.66.6-2.56.75-4.36,0-5.56-2.26l-.45-.9c-1.5-3.01-.15-5.11,3.31-4.66,2.11.15,4.51.45,7.22.45h5.56v-4.06c0-10.83-.45-19.7-1.35-27.07-.45-3.01,1.2-4.51,4.36-3.91,7.37,1.65,12.33,3.01,15.04,4.51,1.65.9,2.71,3.76.6,5.11l-2.56,1.65v23.01l3.61-6.47c1.65-3.16,2.71-4.36,3.16-4.36,1.5,0,11.88,11.43,11.88,14.74v.15c-.45,2.26-1.2,3.46-3.76,3.46h-14.89v21.81c4.66-1.35,8.72-2.71,12.03-3.91,2.56-.9,4.21-.75,4.51.15.45.9.3,1.96-.6,2.71-.45.3-.75.6-1.35,1.05-6.32,5.11-11.28,8.87-14.59,11.28v45.72c0,7.07-1.2,12.33-3.31,15.04-2.86,3.61-6.77,5.41-12.18,6.47-2.71.45-4.36-1.05-4.66-3.91Zm98.07.9c-.6-1.81-.15-2.71-.15-2.86v-.3c.15-.9.3-1.2.3-1.35v-.3l.15-.9v-1.5h-46.02l-2.26,2.86c-1.5,1.96-3.46,2.41-5.72,1.35l-9.48-4.36c-2.71-1.2-3.46-3.31-1.66-5.26,1.05-1.05,1.81-1.8,2.86-2.71v-13.54c0-4.21-.15-7.97-.45-11.43-.3-3.01,1.35-4.51,4.51-3.76,6.77,1.66,11.28,3.01,13.99,4.51,1.65.9,2.11,3.91.3,5.11l-2.56,1.66v18.95h15.49v-34.59h-16.85c-6.02.15-12.18.6-18.65,1.5-2.41.45-4.21-.45-5.26-2.71l-.75-1.5c-1.5-3.16-.15-5.11,3.16-4.81,4.51.45,9.48.6,15.04.75h23.31v-17.3h-13.84c-6.77,7.07-12.94,12.48-18.5,16.24-1.96,1.35-3.46,1.5-4.06,1.05-.75-.6-.3-1.81,1.05-4.21,2.41-3.91,4.66-8.72,6.92-13.99,2.26-5.26,3.91-10.08,5.26-14.74.9-2.71,1.8-4.06,2.56-3.76.75.3,1.2.75,1.2,1.5,0,.6-.6.9-1.2.45-.45-.3-.75-.6-1.05-1.05-.6-6.02-2.71-12.48-6.62-20.16-1.2-2.41-1.66-3.91-1.05-4.21.6-.45,1.81-.45,3.91.15,7.07,2.11,12.03,4.96,15.64,9.78,2.71,3.61,3.31,8.72,1.5,12.48-1.2,2.26-2.41,3.76-3.91,4.51-2.41,1.2-4.21,0-4.21-.75s1.96-.6,5.11.45c10.53,3.46,13.08,6.32,7.82,7.22l-3.16.45-1.5,1.96h34.29l3.46-4.66c.15-.15.3-.3.45-.6.15-.3.75-1.05.75-.9,2.26-3.01,3.31-4.21,3.61-4.21,1.05,0,14.44,9.48,14.44,13.39v.15c-.45,2.41-1.35,3.46-3.91,3.46h-29.33v17.3h17.3l3.76-5.57.9-1.05c0-.15.15-.3.3-.6,2.11-2.71,3.16-3.91,3.46-3.91,1.65,0,14.89,10.53,14.89,14.29,0,.15.15,1.2-1.05,2.71-.6.6-1.5.9-2.86.9h-36.7v34.59h15.34c0-10.23-.45-18.65-1.5-25.72-.3-3.16,1.35-4.66,4.51-3.91,7.67,1.66,12.48,3.01,15.04,4.21,1.65.9,2.71,3.76.6,5.11l-2.71,1.66v7.22c.15,7.82.3,14.29.75,19.25,0,1.96.15,3.61-1.5,4.96-.75.6-1.96,1.05-3.31,1.65-3.46,1.05-6.32,1.5-9.17,1.5-1.81,0-2.56-.9-3.01-2.11Zm-63.62-122.58c13.99-2.26,28.43-5.57,43.47-9.63,8.57-2.26,16.09-4.96,21.96-8.12,2.41-1.2,4.36-.75,5.87,1.35l5.11,6.92,5.11,5.26c1.96,2.11,2.11,5.41-.75,5.71-1.65.15-3.46-.45-6.02-1.65-10.68,1.65-22.86,2.86-36.7,3.91-13.39.9-25.87,1.5-37.45,1.65-2.71,0-4.06-.75-4.36-2.41-.3-1.5,1.05-2.56,3.76-3.01Zm35.8,33.54c-1.81-1.2-2.41-2.86-2.41-5.11,0-3.31-.45-6.62-1.65-10.53-.9-2.86-1.96-5.72-3.61-8.72-1.2-2.41-1.5-3.91-.75-4.36.75-.45,1.96-.3,4.06.45,5.87,2.41,10.23,5.41,13.54,9.78,2.71,3.61,3.91,7.97,3.16,12.18-.9,4.21-2.86,6.47-5.56,7.52-2.56.75-4.36.45-6.77-1.2Zm17.45,5.72c-.9-.6-.6-1.96.3-4.36l.3-.75c.6-1.65.9-2.26,1.2-2.71,2.11-5.11,3.76-10.23,5.11-15.64,1.05-4.21,1.96-7.82,2.41-10.83.6-3.16,2.56-4.06,5.26-2.56l6.77,3.76c3.91,1.65,6.47,2.86,8.12,4.81.6.75.9,3.31-1.35,3.91l-3.46.75c-6.62,9.17-13.69,16.39-20.61,22.11-1.96,1.66-3.16,2.11-4.06,1.5Z"/><path class="bb" d="m651.94,166.91c-11.28-4.06-20.31-9.93-28.13-18.5-21.36,11.73-37.02,18.5-64.69,20.91-2.56.15-4.06-.45-4.51-1.96-.45-1.35.9-2.56,3.61-3.16,26.17-5.72,39.72-15.04,57.32-27.22-4.21-7.52-7.82-16.7-10.38-27.22h-29.78v5.71c0,2.11-1.5,3.31-4.66,4.66-3.61,1.65-6.77,2.41-9.93,2.41-2.86,0-3.76-1.65-3.76-4.21.6-9.48,1.05-18.8,1.2-28.13v-15.64c0-10.38-.3-19.1-1.35-26.32-.45-3.31,1.5-4.66,4.51-3.46l15.04,6.17h22.86c-.15-4.51-.15-11.13-.15-19.55,0-2.86,1.65-4.36,4.51-4.21,7.67.75,12.48,1.5,14.89,2.26,1.8.6,2.26,3.61.45,4.81l-2.56,1.81c0,1.81,0,4.51-.15,7.67v7.22h26.47l3.46-4.06s1.35-1.66,2.71-3.16c1.2-1.35,1.96-1.96,2.11-1.96,1.35,0,15.79,10.68,15.79,14.44,0,.45-.45,1.5-2.26,2.86-1.05.6-2.11,1.05-3.31,1.35v46.48c0,1.8.15,3.46-1.5,4.66-.6.45-1.65.75-3.01,1.35-2.26,1.05-4.21,1.66-5.87,2.11,3.31,2.26,5.72,3.91,7.22,5.72,1.05,1.2.6,3.61-1.2,3.76l-3.31.15c-4.06,4.96-8.72,9.33-13.54,13.09,4.66,3.76,10.38,6.92,17.3,9.02,1.5.6,3.16.9,3.91.75,1.05-.15,1.65-.6,2.26-1.5,2.41-4.51,5.11-10.38,8.12-17.3,1.05-2.41,1.81-3.46,2.11-3.46l.6.15-2.41,24.67c2.86,2.56,4.51,4.66,5.72,7.37.75,1.65.75,4.21,0,5.87-2.11,4.96-5.41,6.77-10.23,6.92-3.61,0-8.72-1.05-15.49-3.31Zm-76.56-90.4h25.12c-.3-4.36-.6-10.68-1.05-18.95h-24.07v18.95Zm0,26.47h28.43c-1.2-6.02-2.26-12.78-2.71-19.85h-25.72v19.85Zm68.59-26.47v-18.95h-27.53c0,6.02.3,12.33.75,18.95h26.77Zm0,26.47v-19.85h-26.32c.6,6.77,1.65,13.39,3.16,19.85h23.16Zm-3.46,9.93c1.5-2.11,2.56-3.16,2.86-3.01l.6.45v-.6h-21.51c1.65,5.41,3.91,10.68,6.92,15.94,4.66-4.66,8.27-9.02,11.13-12.78Z"/><path class="au" d="m210.42,189.97l-27.16-13.58,27.16-13.58v2.76l-21.75,10.82,21.75,10.88v2.71Z"/><path class="ar" d="m231.62,190l-27.16-13.58,27.16-13.58v2.76l-21.75,10.82,21.75,10.88v2.71Zm-2.71-13.58l-2.71,2.76-2.71-2.76,2.71-2.71,2.71,2.71Z"/><path class="ba" d="m235.71,190l13.58-27.16,13.58,27.16h-2.71l-10.88-21.7-10.88,21.7h-2.71Zm13.58-5.41l-2.71-2.71,2.71-2.71,2.71,2.71-2.71,2.71Z"/><path class="bg" d="m294.13,190h-27.16v-27.16l2.71,2.76v21.7h21.75l2.71,2.71Z"/><path class="av" d="m307.71,190l-27.16-13.58,27.16-13.58v2.76l-21.75,10.82,21.75,10.88v2.71Zm-2.71-13.58l-2.71,2.76-2.71-2.76,2.71-2.71,2.71,2.71Z"/><path class="ax" d="m344.7,169.95c11.22-2.34,16.18-8.26,16.18-16.47s-6.01-13.79-13.94-13.79c-.48,0-1,.05-1.48.05,1.1,1.43,2.15,3.2,2.15,5.11,0,2.34-.53,5.2-1.53,7.92-2.1,5.87-7.59,15.08-12.7,15.08-3.39,0-6.83-5.3-6.83-11.41,0-4.87,2.29-10.07,6.59-13.75,4.06-3.58,8.92-5.15,14.13-5.15,10.17,0,17.85,6.73,17.85,16.8,0,8.07-5.25,16.08-20.14,17.32-.62.05-1-.24-1.1-.76-.1-.48.19-.81.81-.95Zm-11.02-6.73c3.1,0,7.35-7.25,9.12-11.5,1.1-2.43,1.86-5.3,1.86-7.49,0-1.53-.53-2.77-1.34-4.1-3.34.72-6.54,2.39-8.83,4.72-3.01,3.05-4.72,6.63-4.72,10.69,0,4.34,1.86,7.68,3.91,7.68Z"/><path class="bi" d="m544.46,184h-24.36c-.83,0-1.5-.67-1.5-1.5V56.44c0-.83.67-1.5,1.5-1.5h24.36c.83,0,1.5.67,1.5,1.5v126.06c0,.83-.67,1.5-1.5,1.5Zm-17.41-103.77c.08.28.34.37.68.25,3.11-.96,4.92-2.12,6.33-3.96.28.03.59.06.9.06,4.95,0,8.17-3,8.17-7.8,0-4.38-3.19-7.26-7.09-7.26h-.14c-.68-2.46-1.87-4.01-3.36-4.01-.9,0-2.01.71-2.94,2.37-.57,1.1-1.07,2.69-1.36,4.63-2.15,1.81-3.73,4.15-4.97,7.01-.37-.57-.51-1.41-.51-2.26,0-1.33.68-3,1.27-4.55.31-.62.79-1.47.76-2.29.03-.88-.93-2.01-1.41-2.49-.42-.37-.88-.59-1.33-.79-.28-.11-.51-.09-.65.06-.14.14-.11.37.08.65.51.73,1.1,1.55,1.1,2.49,0,.85-.25,1.89-.54,3.05-.34,1.36-.71,2.83-.71,4.32,0,2.57.82,4.41,1.41,5.2.45.51.85.9,1.33.9.62,0,.9-.42.9-1.02,0-.4-.08-.68-.17-.96-.09-.34-.2-.71-.2-1.13,0-1.39,1.27-4.41,3.45-6.58-.06.57-.08,1.19-.08,1.84,0,4.07,1.61,6.98,4.21,8.08-1.07,1.41-2.6,2.63-4.78,3.53-.34.14-.45.37-.37.65Zm2.12-13.4c0-.59.03-1.16.08-1.75,1.55-1.16,3.22-1.89,5.06-2.15.11,1.07.17,2.4.17,4.01,0,2.71-.31,5.09-1.19,7.15-2.71-.71-4.13-3-4.13-7.26Zm.28-3.28c.2-1.1.48-2.12.88-2.97.59-1.3,1.33-1.81,1.98-1.81.79,0,1.41.73,1.81,2.88-1.87.34-3.5,1.07-4.66,1.89Zm5.85,10.74c.93-2.35,1.22-5.17,1.22-7.52,0-1.41-.11-2.77-.34-3.96,2.49.2,4.92,1.92,4.92,5.65,0,3.98-2.74,5.74-5.79,5.82Zm-3.02,39.37c5.26,0,8.34-2.91,8.39-6.56.06-4.01-3-6.39-6.47-6.39-1.89,0-3.45.51-4.61.96-.28.11-.31.06-.14-.11,1.1-1.27,4.61-4.72,6.13-5.93.31-.28.73-.54.99-.71.42-.23.68-.4.68-.85,0-1.02-1.75-2.26-2.66-2.26-.2,0-.34.08-.51.2-.14.11-.31.2-.73.31-1.3.4-4.47,1.27-5.57,1.27-.65,0-1.05-.57-1.36-1.19-.14-.31-.28-.45-.4-.42-.11.03-.25.17-.28.51-.08.42-.08.88-.03,1.27.2.96,1.3,2.29,2.46,2.29.31,0,.62-.2.93-.4.14-.08.23-.17.45-.25,1.07-.51,3.17-1.41,4.13-1.55.4-.08.45-.06.23.25-.65,1.05-2.71,3.19-5,5.6-1.67,1.75-3.45,3.59-5.03,5.43-.68.65-1.02,1.13-1.05,1.72-.03.88.45,1.41.88,1.41.42.03.65-.11,1.19-.79,2.2-2.97,4.92-5.51,8.76-5.51,3.28,0,4.95,2.26,4.89,4.61-.03,1.98-1.19,3.84-3.82,4.66-.54-2.71-2.6-3.9-4.44-3.9s-3.22,1.19-3.22,2.83c0,2.23,2.18,3.5,5.2,3.5Zm-4.18-3.65c0-.79.68-1.33,1.7-1.33,1.55,0,2.71,1.05,3.08,2.94-.34.03-.73.06-1.16.06-2.43,0-3.62-.79-3.62-1.67Zm-.57,35.64c1.38.57,2.26,0,2.26-.93,0-.31-.06-.48-.14-.65-.11-.31-.25-.62-.14-1.36.11-.82.76-2.88,1.38-4.75.11-.34.06-.57-.17-.68s-.45.03-.59.37c-.73,1.58-1.58,3.31-2.4,4.55-.2.31-.59.37-.96.2-1.1-.65-2.46-2.29-2.46-5.51,0-1.72.37-3.05.68-4.1.2-.71.37-1.27.37-1.81,0-1.27-1.47-2.57-2.54-3.05-.48-.2-.99-.31-1.47-.4-.31-.03-.54.06-.62.25s-.03.42.25.65c1.47,1.16,1.75,1.87,1.75,3.25,0,.48-.03,1.05-.06,1.67-.06,1.1-.14,2.43-.06,3.7.17,5.23,2.88,7.63,4.92,8.59Zm8.11-14.44c1.72.79,2.97,1.84,3.73,3.36.79,1.58,1.02,3.19,1.19,4.41.06.37.08.71.14.96.2.79.59,1.1,1.05,1.1.9,0,1.38-.57,1.38-1.92,0-1.92-.82-4.63-2.35-6.3-1.3-1.24-2.6-2.15-4.83-2.63-.37-.06-.59.06-.68.34-.08.31.03.51.37.68Zm-.23,49.32c2.43,0,3.98-1.19,5-2.91.65.59,1.1,1.07,1.47,1.5.06.06.17.2.2.2.65.73.9,1.07,1.3,1.05.54,0,.9-.51.9-1.19,0-.76-.4-1.44-.99-2.01-.51-.45-1.19-1.07-2.06-1.61.4-1.36.65-3,.65-4.72,0-3.79-1.5-7.83-5.26-7.83-2.74,0-6.56,2.94-8.34,4.61.28-.4.59-.82.96-1.22l.17-.17c.28-.31.45-.51.45-.9,0-.42-.54-1.05-.99-1.33l.42-1.38c.11-.4.25-.76.37-1.02.14-.34.25-.57.25-.96,0-.99-1.53-2.32-2.8-2.32-.45,0-.88.09-1.3.23-.34.09-.48.28-.48.54s.17.45.51.54c.42.11.79.23,1.02.34.54.2.62.28.62.82-.03.71-.2,2.06-.4,3.7-1.3.65-3.67,1.72-4.38,1.72-.48,0-.85-.28-1.16-.76-.2-.31-.34-.42-.45-.4-.14.03-.25.23-.23.54,0,.34.03.65.08.96.34,1.02,1.53,2.12,2.4,2.12.31,0,.57-.28.85-.59.14-.14.25-.25.48-.42.51-.31,1.33-.76,2.18-1.24-.06.71-.14,1.44-.2,2.2-1.81,2.85-4.55,6.42-5.74,7.69-.51.51-.68.99-.68,1.61,0,.76.45,1.22.88,1.22.42-.03.76-.42,1.19-1.02.42-.59.93-1.33,1.47-2.18.71,1.16,1.41,2.6,1.64,3.22.25.68.37,1.16.51,1.84.17.74.45,1.1,1.05,1.1.85,0,1.41-1.13,1.41-2.23,0-.48-.08-1.07-.14-1.67l-.08-.68c-.11-1.58-.4-4.78-.25-7.72,2.54-3.02,6.16-5.43,8.39-5.43,2.54,0,3.48,3,3.48,6.53,0,1.3-.17,2.6-.45,3.76-1.02-.37-2.12-.59-3.42-.59-2.37,0-4.24,1.5-4.24,3.31,0,1.95,1.61,3.17,3.73,3.17Zm-11.19-5.26l2.29-3.62c-.03,1.33-.03,2.66-.03,3.79v2.06c0,.28-.2.31-.45.11l-1.81-2.35Zm8.45,1.92c0-.93,1.19-1.67,2.8-1.67,1.24,0,2.32.4,3.19.88-.79,1.5-1.92,2.2-3.7,2.2-1.55,0-2.29-.65-2.29-1.41Z"/><path class="bh" d="m569.97,175.88c.68,0,1.3.07,1.84.22s.98.35,1.3.6c.32.25.48.54.48.86,0,.17-.06.34-.18.5-.12.16-.28.24-.48.24-.19,0-.34-.03-.45-.1-.11-.07-.22-.15-.32-.26-.1-.11-.24-.2-.41-.28-.16-.09-.39-.17-.7-.22-.31-.05-.62-.08-.92-.08-.74,0-1.38.17-1.93.52-.55.35-.99.82-1.31,1.4-.32.59-.48,1.26-.48,2.01s.15,1.42.46,2c.31.59.74,1.06,1.28,1.4.55.35,1.18.52,1.9.52.47,0,.84-.04,1.12-.12.28-.08.51-.17.7-.28.24-.13.42-.27.55-.4s.3-.2.51-.2c.23,0,.4.07.53.22.13.15.19.33.19.54,0,.24-.17.49-.5.76s-.79.49-1.35.68c-.57.19-1.21.28-1.93.28-1.02,0-1.9-.24-2.67-.71-.76-.47-1.35-1.12-1.77-1.94-.42-.82-.63-1.74-.63-2.76s.22-1.93.65-2.75c.43-.81,1.04-1.46,1.81-1.94.78-.48,1.68-.72,2.71-.72Z"/><path class="aw" d="m581.05,186.7c-1.07,0-2-.23-2.81-.68-.8-.45-1.43-1.08-1.87-1.87-.45-.79-.67-1.71-.67-2.76,0-1.16.23-2.16.69-2.98.46-.82,1.06-1.45,1.8-1.88.74-.43,1.53-.65,2.35-.65.61,0,1.21.11,1.78.34.57.23,1.08.56,1.52.99.44.43.79.95,1.06,1.56.27.61.41,1.29.42,2.03,0,.21-.08.39-.24.54-.16.15-.35.22-.56.22h-7.92l-.36-1.38h7.72l-.32.28v-.44c-.05-.55-.24-1.02-.55-1.41-.31-.39-.69-.7-1.14-.91-.45-.21-.92-.32-1.41-.32-.4,0-.8.07-1.19.21-.39.14-.75.37-1.06.68-.31.31-.57.72-.76,1.21s-.29,1.09-.29,1.78c0,.78.16,1.46.47,2.04.31.59.75,1.05,1.31,1.39.56.34,1.22.51,1.96.51.47,0,.88-.06,1.22-.18.35-.12.65-.27.9-.45.25-.18.47-.36.64-.55.17-.12.34-.18.5-.18.2,0,.36.07.49.2.13.13.19.29.19.48,0,.23-.11.43-.32.6-.37.41-.88.78-1.52,1.09-.64.31-1.32.47-2.04.47Z"/><path class="bk" d="m596.87,176.04c.23,0,.42.08.57.23.15.15.23.34.23.57v8.84c0,.23-.08.42-.23.58-.15.16-.34.24-.57.24-.24,0-.43-.08-.58-.24-.15-.16-.22-.35-.22-.58v-1.9l.38-.04c0,.29-.1.62-.3.96-.2.35-.47.67-.82.97-.35.3-.76.55-1.23.74s-.99.29-1.53.29c-.91,0-1.72-.24-2.45-.71-.72-.47-1.29-1.12-1.71-1.93-.42-.81-.63-1.74-.63-2.79s.21-1.99.63-2.8c.42-.81.99-1.44,1.71-1.9.72-.46,1.52-.69,2.41-.69.57,0,1.11.09,1.6.28.49.19.93.44,1.29.76.37.32.65.67.86,1.06.21.39.31.78.31,1.16l-.52-.12v-2.18c0-.23.07-.42.22-.57.15-.15.34-.23.58-.23Zm-4.13,9.18c.67,0,1.26-.17,1.77-.52.51-.35.92-.82,1.2-1.41s.43-1.27.43-2.01-.14-1.4-.43-1.99c-.29-.59-.69-1.06-1.2-1.4s-1.11-.51-1.77-.51-1.24.17-1.75.5-.92.79-1.21,1.38c-.29.59-.44,1.26-.44,2.02s.14,1.42.43,2.01c.29.59.69,1.07,1.2,1.41.51.35,1.1.52,1.77.52Z"/><path class="bj" d="m602.9,185.68c0,.23-.08.42-.24.58-.16.16-.35.24-.58.24s-.41-.08-.56-.24c-.15-.16-.22-.35-.22-.58v-13.21c0-.23.08-.42.23-.57.15-.15.34-.23.57-.23.24,0,.43.08.58.23.15.15.22.34.22.57v13.21Z"/><path class="bf" d="m611.1,186.7c-1.07,0-2-.23-2.81-.68-.8-.45-1.43-1.08-1.87-1.87-.45-.79-.67-1.71-.67-2.76,0-1.16.23-2.16.69-2.98.46-.82,1.06-1.45,1.8-1.88.74-.43,1.53-.65,2.35-.65.61,0,1.21.11,1.78.34.57.23,1.08.56,1.52.99.44.43.79.95,1.06,1.56.27.61.41,1.29.42,2.03,0,.21-.08.39-.24.54-.16.15-.35.22-.56.22h-7.92l-.36-1.38h7.72l-.32.28v-.44c-.05-.55-.24-1.02-.55-1.41-.31-.39-.69-.7-1.14-.91-.45-.21-.92-.32-1.41-.32-.4,0-.8.07-1.19.21-.39.14-.75.37-1.06.68-.31.31-.57.72-.76,1.21s-.29,1.09-.29,1.78c0,.78.16,1.46.47,2.04.31.59.75,1.05,1.31,1.39.56.34,1.22.51,1.96.51.47,0,.88-.06,1.22-.18.35-.12.65-.27.9-.45.25-.18.47-.36.64-.55.17-.12.34-.18.5-.18.2,0,.36.07.49.2.13.13.19.29.19.48,0,.23-.11.43-.32.6-.37.41-.88.78-1.52,1.09-.64.31-1.32.47-2.04.47Z"/><path class="az" d="m618.78,186.48c-.28,0-.5-.08-.65-.24-.15-.16-.23-.38-.23-.66v-.4c0-.29.08-.52.23-.68.15-.16.37-.24.65-.24h.16c.29,0,.51.08.66.24.15.16.22.39.22.68v.4c0,.28-.07.5-.22.66-.15.16-.37.24-.66.24h-.16Z"/><path class="as" d="m627.84,175.98c.91,0,1.65.23,2.21.69.57.46.95,1.11,1.13,1.95h-.3l.14-.36c.16-.37.43-.73.82-1.08.39-.35.84-.63,1.34-.86s1.04-.34,1.58-.34c.88,0,1.58.19,2.08.57.51.38.87.89,1.09,1.52.22.64.33,1.35.33,2.13v5.47c0,.23-.08.42-.23.58-.15.16-.34.24-.57.24-.24,0-.43-.08-.58-.24-.15-.16-.22-.35-.22-.58v-5.43c0-.52-.08-.99-.23-1.41s-.4-.75-.74-1c-.34-.25-.8-.37-1.39-.37-.55,0-1.05.12-1.5.37-.45.25-.82.58-1.08,1-.27.42-.4.89-.4,1.41v5.43c0,.23-.07.42-.22.58-.15.16-.34.24-.58.24s-.42-.08-.57-.24c-.15-.16-.23-.35-.23-.58v-5.49c0-.51-.07-.97-.21-1.37-.14-.41-.38-.73-.71-.98-.33-.25-.79-.37-1.38-.37-.54,0-1.02.12-1.46.37-.44.25-.79.58-1.06.98-.27.41-.4.87-.4,1.37v5.49c0,.23-.08.42-.23.58-.15.16-.34.24-.57.24s-.42-.08-.57-.24c-.15-.16-.23-.35-.23-.58v-8.74c0-.23.08-.42.23-.57s.34-.23.57-.23c.24,0,.43.08.58.23.15.15.22.34.22.57v1.52l-.44.48c.05-.35.19-.69.41-1.04.22-.35.5-.67.85-.96.35-.29.74-.53,1.16-.7s.88-.26,1.36-.26Z"/><path class="at" d="m651.59,181.29c0,1.04-.23,1.97-.69,2.79-.46.81-1.08,1.46-1.86,1.92s-1.66.7-2.64.7-1.86-.23-2.65-.7-1.41-1.11-1.87-1.92c-.46-.82-.69-1.74-.69-2.79s.23-1.97.69-2.79c.46-.82,1.09-1.46,1.87-1.92s1.67-.7,2.65-.7,1.85.23,2.64.7,1.4,1.11,1.86,1.92c.46.81.69,1.74.69,2.79Zm-1.6,0c0-.78-.16-1.46-.47-2.04-.31-.59-.74-1.05-1.28-1.38-.54-.33-1.15-.5-1.83-.5s-1.29.17-1.83.5c-.54.33-.97.79-1.29,1.38-.32.59-.48,1.27-.48,2.04s.16,1.44.48,2.02c.32.59.75,1.05,1.29,1.39.54.34,1.15.51,1.83.51s1.29-.17,1.83-.51c.54-.34.97-.8,1.28-1.39.31-.59.47-1.26.47-2.02Z"/><path class="bc" d="m659.28,186.7c-1.07,0-2-.23-2.81-.68-.8-.45-1.43-1.08-1.87-1.87-.45-.79-.67-1.71-.67-2.76,0-1.16.23-2.16.69-2.98.46-.82,1.06-1.45,1.8-1.88.74-.43,1.53-.65,2.35-.65.61,0,1.21.11,1.78.34.57.23,1.08.56,1.52.99.44.43.79.95,1.06,1.56.27.61.41,1.29.42,2.03,0,.21-.08.39-.24.54-.16.15-.35.22-.56.22h-7.92l-.36-1.38h7.72l-.32.28v-.44c-.05-.55-.24-1.02-.55-1.41-.31-.39-.69-.7-1.14-.91-.45-.21-.92-.32-1.41-.32-.4,0-.8.07-1.19.21-.39.14-.75.37-1.06.68-.31.31-.57.72-.76,1.21s-.29,1.09-.29,1.78c0,.78.16,1.46.47,2.04.31.59.75,1.05,1.31,1.39.56.34,1.22.51,1.96.51.47,0,.88-.06,1.22-.18.35-.12.65-.27.9-.45.25-.18.47-.36.64-.55.17-.12.34-.18.5-.18.2,0,.36.07.49.2.13.13.19.29.19.48,0,.23-.11.43-.32.6-.37.41-.88.78-1.52,1.09-.64.31-1.32.47-2.04.47Z"/></svg>