<?xml version="1.0" encoding="UTF-8"?><svg id="a" xmlns="http://www.w3.org/2000/svg" width="400" height="71.04" viewBox="0 0 400 71.04"><defs><style>.b{fill:#fff;stroke-width:0px;}</style></defs><path class="b" d="m35.64,17.89c-3.26,0-6.24.78-8.95,2.35-2.71,1.56-4.87,3.67-6.48,6.31-1.61,2.64-2.45,5.61-2.51,8.9.03,3.32.83,6.33,2.39,9.02,1.56,2.69,3.69,4.84,6.38,6.46,2.69,1.61,5.68,2.42,8.97,2.42h33.66c.48,0,.9.17,1.26.51.35.34.53.75.53,1.23v14.17c0,.52-.18.94-.53,1.28-.36.34-.77.51-1.26.51h-33.66c-6.55,0-12.49-1.6-17.85-4.79-5.35-3.19-9.62-7.46-12.82-12.82C1.6,48.09,0,42.14,0,35.59s1.6-12.45,4.79-17.82c3.19-5.37,7.46-9.65,12.82-12.84C22.96,1.74,28.9.14,35.45.14h33.66c.48,0,.9.18,1.26.53.35.36.53.77.53,1.26v14.17c0,.48-.18.9-.53,1.26s-.77.53-1.26.53h-33.47Z"/><path class="b" d="m151.57,17.8h-48.75c-.74,0-1.37.26-1.89.77-.52.52-.77,1.14-.77,1.89v3.53c0,.74.26,1.37.77,1.89.52.52,1.14.77,1.89.77h31.05c.48,0,.89.18,1.23.53.34.36.51.77.51,1.26v14.17c0,.48-.17.9-.51,1.26-.34.36-.75.53-1.23.53h-31.05c-.74,0-1.37.26-1.89.77s-.77,1.14-.77,1.89v3.53c0,.74.26,1.37.77,1.89.52.52,1.14.77,1.89.77h48.75c.48,0,.9.17,1.26.51.35.34.53.75.53,1.23v14.22c0,.48-.18.89-.53,1.23-.36.34-.77.51-1.26.51h-67.37c-.48,0-.89-.17-1.23-.51s-.51-.75-.51-1.23V19.54c0-.48.17-.89.51-1.23s.75-.51,1.23-.51h7.11c2.45,0,4.54-.87,6.26-2.61,1.72-1.74,2.59-3.82,2.59-6.24V1.84c0-.48.18-.9.53-1.26s.77-.53,1.26-.53h49.62c.48,0,.9.18,1.26.53.35.36.53.77.53,1.26v14.17c0,.48-.18.9-.53,1.26s-.77.53-1.26.53Z"/><path class="b" d="m233.83,17.8c.48,0,.9.17,1.23.51s.51.75.51,1.23v49.76c0,.48-.17.89-.51,1.23s-.75.51-1.23.51h-14.22c-.48,0-.9-.17-1.26-.51-.36-.34-.53-.75-.53-1.23v-13.35c0-.71-.26-1.33-.77-1.86-.52-.53-1.14-.8-1.89-.8h-22.2c-.48,0-.9-.17-1.26-.51-.36-.34-.53-.75-.53-1.23v-14.22c0-.48.18-.9.53-1.26.35-.35.77-.53,1.26-.53h22.2c.74,0,1.37-.26,1.89-.77.52-.52.77-1.14.77-1.89v-12.43c0-.74-.26-1.37-.77-1.89-.52-.52-1.14-.77-1.89-.77h-15.09c-3.29,0-6.27.8-8.95,2.39-2.68,1.6-4.81,3.74-6.41,6.43-1.6,2.69-2.39,5.67-2.39,8.92v33.76c0,.48-.18.89-.53,1.23-.36.34-.77.51-1.26.51h-14.22c-.48,0-.9-.17-1.26-.51-.36-.34-.53-.75-.53-1.23v-33.76c0-6.54,1.6-12.5,4.81-17.87,3.21-5.37,7.5-9.66,12.86-12.86,5.37-3.21,11.32-4.81,17.87-4.81h15.96c.52,0,.94.18,1.28.53.34.36.51.77.51,1.26v7.11c0,2.45.87,4.55,2.61,6.29,1.74,1.74,3.84,2.61,6.29,2.61h7.11Z"/><path class="b" d="m316.38,35.55c.16,0,.36.04.6.12.24.08.45.25.63.51.18.26.27.63.27,1.11-.39,6.32-2.18,12.02-5.39,17.1-3.21,5.08-7.44,9.12-12.69,12.14-5.26,3.02-11.04,4.52-17.36,4.52h-15.96c-.52,0-.94-.18-1.28-.53-.34-.35-.51-.77-.51-1.26v-7.11c0-2.45-.87-4.54-2.61-6.26-1.74-1.72-3.84-2.59-6.29-2.59h-7.06c-.52,0-.94-.18-1.28-.53-.34-.35-.51-.77-.51-1.26V1.79c0-.48.17-.89.51-1.23s.77-.51,1.28-.51h14.17c.48,0,.9.17,1.23.51s.51.73.51,1.18v31.39h.05v17.51c0,.71.26,1.33.77,1.86.52.53,1.14.8,1.89.8h15.09c3.06,0,5.88-.71,8.44-2.13,2.56-1.42,4.66-3.33,6.29-5.73,1.63-2.4,2.6-5.12,2.93-8.15v-.19c.06-.45.19-.78.39-.99.19-.21.41-.35.65-.44.24-.08.44-.12.6-.12h14.65Z"/><path class="b" d="m398.21,17.8h-48.75c-.74,0-1.37.26-1.89.77-.52.52-.77,1.14-.77,1.89v3.53c0,.74.26,1.37.77,1.89.52.52,1.14.77,1.89.77h31.05c.48,0,.89.18,1.23.53.34.36.51.77.51,1.26v14.17c0,.48-.17.9-.51,1.26-.34.36-.75.53-1.23.53h-31.05c-.74,0-1.37.26-1.89.77s-.77,1.14-.77,1.89v3.53c0,.74.26,1.37.77,1.89.52.52,1.14.77,1.89.77h48.75c.48,0,.9.17,1.26.51s.53.75.53,1.23v14.22c0,.48-.18.89-.53,1.23s-.77.51-1.26.51h-67.37c-.48,0-.9-.17-1.23-.51s-.51-.75-.51-1.23V19.54c0-.48.17-.89.51-1.23s.75-.51,1.23-.51h7.11c2.45,0,4.54-.87,6.26-2.61,1.72-1.74,2.59-3.82,2.59-6.24V1.84c0-.48.18-.9.53-1.26.35-.35.77-.53,1.26-.53h49.62c.48,0,.9.18,1.26.53.35.36.53.77.53,1.26v14.17c0,.48-.18.9-.53,1.26-.35.36-.77.53-1.26.53Z"/></svg>