<?xml version="1.0" encoding="UTF-8"?><svg id="c" xmlns="http://www.w3.org/2000/svg" width="800" height="250" xmlns:xlink="http://www.w3.org/1999/xlink" viewBox="0 0 800 250"><defs><filter id="d" filterUnits="userSpaceOnUse"><feOffset dx="0" dy="0"/><feGaussianBlur result="e" stdDeviation="3"/><feFlood flood-color="#000" flood-opacity=".4"/><feComposite in2="e" operator="in"/><feComposite in="SourceGraphic"/></filter><filter id="f" filterUnits="userSpaceOnUse"><feOffset dx="0" dy="0"/><feGaussianBlur result="g" stdDeviation="3"/><feFlood flood-color="#000" flood-opacity=".4"/><feComposite in2="g" operator="in"/><feComposite in="SourceGraphic"/></filter><filter id="h" filterUnits="userSpaceOnUse"><feOffset dx="0" dy="0"/><feGaussianBlur result="i" stdDeviation="3"/><feFlood flood-color="#000" flood-opacity=".4"/><feComposite in2="i" operator="in"/><feComposite in="SourceGraphic"/></filter><filter id="j" filterUnits="userSpaceOnUse"><feOffset dx="0" dy="0"/><feGaussianBlur result="k" stdDeviation="3"/><feFlood flood-color="#000" flood-opacity=".4"/><feComposite in2="k" operator="in"/><feComposite in="SourceGraphic"/></filter><filter id="l" filterUnits="userSpaceOnUse"><feOffset dx="0" dy="0"/><feGaussianBlur result="m" stdDeviation="3"/><feFlood flood-color="#000" flood-opacity=".4"/><feComposite in2="m" operator="in"/><feComposite in="SourceGraphic"/></filter><filter id="n" filterUnits="userSpaceOnUse"><feOffset dx="0" dy="0"/><feGaussianBlur result="o" stdDeviation="3"/><feFlood flood-color="#000" flood-opacity=".4"/><feComposite in2="o" operator="in"/><feComposite in="SourceGraphic"/></filter><filter id="p" filterUnits="userSpaceOnUse"><feOffset dx="0" dy="0"/><feGaussianBlur result="q" stdDeviation="3"/><feFlood flood-color="#000" flood-opacity=".4"/><feComposite in2="q" operator="in"/><feComposite in="SourceGraphic"/></filter><filter id="r" filterUnits="userSpaceOnUse"><feOffset dx="0" dy="0"/><feGaussianBlur result="s" stdDeviation="3"/><feFlood flood-color="#000" flood-opacity=".4"/><feComposite in2="s" operator="in"/><feComposite in="SourceGraphic"/></filter><filter id="t" filterUnits="userSpaceOnUse"><feOffset dx="0" dy="0"/><feGaussianBlur result="u" stdDeviation="3"/><feFlood flood-color="#000" flood-opacity=".4"/><feComposite in2="u" operator="in"/><feComposite in="SourceGraphic"/></filter><filter id="v" filterUnits="userSpaceOnUse"><feOffset dx="0" dy="0"/><feGaussianBlur result="w" stdDeviation="3"/><feFlood flood-color="#000" flood-opacity=".4"/><feComposite in2="w" operator="in"/><feComposite in="SourceGraphic"/></filter><filter id="x" filterUnits="userSpaceOnUse"><feOffset dx="0" dy="0"/><feGaussianBlur result="y" stdDeviation="3"/><feFlood flood-color="#000" flood-opacity=".4"/><feComposite in2="y" operator="in"/><feComposite in="SourceGraphic"/></filter><filter id="z" filterUnits="userSpaceOnUse"><feOffset dx="0" dy="0"/><feGaussianBlur result="aa" stdDeviation="3"/><feFlood flood-color="#000" flood-opacity=".4"/><feComposite in2="aa" operator="in"/><feComposite in="SourceGraphic"/></filter></defs><path d="m204.0337,215H63.2721c-.8284,0-1.5-.6716-1.5-1.5V66.8268c0-.8284.6716-1.5,1.5-1.5h140.7617c.8284,0,1.5.6716,1.5,1.5v146.6732c0,.8284-.6716,1.5-1.5,1.5Zm-17.0352-137.318c-.2923,0-1.3577,1.0653-3.3003,3.6137l-1.3578,1.8173-3.1542,4.512h-27.6771c1.3369-1.9635,2.6947-4.3657,4.0524-6.935l3.0079-.8982c1.6503-.4387,2.1097-3.1542.1462-4.3657-2.256-1.504-6.1621-3.3004-12.3242-5.7025-2.5692-.9191-4.2194,0-4.6581,2.6946-.9191,5.4309-2.5692,11.1335-5.1177,17.4627-1.9635-1.9635-4.9714-4.9714-7.9794-7.5198-.752-.752-1.5039-1.3578-2.1096-1.9635-1.3369-1.2116-3.0079-.752-4.512,1.3577l-4.3448,5.8698h-21.515c1.1907-2.256,2.5485-4.6791,3.4466-6.935l3.1751-.8982c1.6501-.4387,2.0888-3.1542.1461-4.3657-2.2559-1.504-6.162-3.3004-12.345-5.8696-2.5485-.8982-4.1986,0-4.6581,2.5692-.7521,3.3004-1.6503,7.2274-3.1542,11.8855-1.7964,5.4101-3.9061,10.6739-6.3083,15.6454-3.1751,5.5564-6.3291,10.5278-9.6295,15.0397-1.3578,1.9426-1.6501,3.1542-.8982,3.9061s2.0888.6058,3.9061-.8982c8.1256-5.8696,15.6454-13.7028,22.2461-23.6248h8.5852c3.1542,5.1177,4.9714,9.6295,5.41,13.849.2925,1.9426.752,3.3004,2.5485,4.3448,5.7234,3.1749,10.6948-1.7965,9.3371-9.0238-.6057-3.1542-2.1097-5.8487-4.6581-8.1047-.6684-.5431-1.2325-.8773-1.6294-1.0653h21.3271c.752,0,1.3578-.1462,1.7964-.4387-2.5483,5.4101-5.0968,10.0682-7.8122,14.2877-1.2116,1.9426-1.5039,3.1542-.752,3.9061s2.1097.4387,3.9061-.8982c5.7234-4.2195,11.2798-9.7758,16.8569-16.8569h8.2717c4.0524,5.2639,6.3083,9.7758,7.0603,14.1415.3134,1.9635.8982,3.3003,2.7156,4.2194,6.0157,2.4022,10.8202-2.5692,9.1699-9.9428-.752-3.1542-2.4021-5.5564-4.8043-7.5199-.4387-.3551-.8564-.6475-1.2742-.8982h28.4918c2.6946,0,3.6137-1.0444,3.7599-3.4466,0-3.4674-11.593-12.9507-13.3895-12.9507Zm-101.2249,133.4195c2.1052,0,4.3613-.4508,7.2191-1.6543.9026-.4508,1.6543-.9026,2.4071-1.3535,1.5034-1.2035,1.9552-2.7079,1.8043-4.6632-.4508-10.5289-.9016-21.6584-1.0526-33.2399v-27.3752c1.3535-.3009,2.557-.6018,3.3087-1.3535,1.6554-1.8053.3009-3.7605-1.9552-4.6622l-2.406-.9026c3.6096-6.1666,6.7683-12.3341,9.3253-18.6506l3.1588-.9026c1.5034-.6018,1.9552-3.3097.1499-4.5122-2.2561-1.5044-6.1666-3.3097-12.3331-5.7157-2.557-1.0526-4.2113-.151-4.6632,2.557-.6018,3.1588-1.5034,7.2191-2.8579,12.0322-1.6543,5.7157-3.6096,10.9807-5.7147,15.9437-4.8131,10.8297-9.9271,19.8542-15.192,27.3742-1.3535,1.9562-1.6543,3.3097-.9026,3.9115.9026.7517,2.2561.4508,3.9115-1.0536,4.2113-3.7595,8.7236-8.5726,13.5367-14.2884v18.8006c-.151,10.9807-.6018,21.6595-1.3535,32.6391-.151,1.2035-.151,2.2561-.151,3.0078,0,2.2561,1.5044,4.0614,3.7605,4.0614Zm24.0655-15.191c2.8579,0,7.0692-1.0526,9.6262-3.1588,1.5034-1.3535,1.6543-2.8579,1.5034-4.6632-.4508-10.5278-.9016-21.5085-1.0526-33.2399v-23.1629l2.2561-1.3545c1.5044-1.0526,1.0526-3.7595-.4508-4.5122-2.1062-1.2025-6.0166-2.406-11.8823-4.0604-2.7079-.7527-4.3623.6018-3.9105,3.4586.9016,7.3701,1.3535,16.3956,1.3535,27.2243v18.3498c-.3009,8.7246-.6018,15.7938-1.0526,21.0577,0,2.2561.9016,4.0614,3.6096,4.0614Zm-3.7605,13.3857c.4508,1.3545,1.8053,1.6554,4.2113,1.0536,20.4559-5.114,36.0988-12.9359,47.9811-23.9156,7.671,10.078,16.8453,17.4481,28.2768,22.5621,2.2561,1.0526,3.7605.1499,4.6622-2.2561,1.3545-3.7605,3.7605-6.6184,7.3701-8.2727,1.8053-.9026,2.8579-1.5044,3.1588-2.8579.3009-1.0526-.7517-2.1062-3.1588-2.8579-12.9349-3.6096-23.6137-8.8745-31.5855-15.4919,8.2727-10.8297,14.2884-24.9682,17.4471-41.9645h12.1832c2.557,0,3.4596-1.0526,3.9105-3.3087v-.151c0-3.4596-11.4305-12.9349-13.2358-12.9349-.3009,0-1.5034,1.2035-3.4596,3.9105q-.4508.7517-1.0526,1.5044l-3.1588,4.5122h-29.0285c1.6543-3.3097,3.4596-7.521,5.4149-12.635l3.0078-1.2025c1.8053-.7527,1.3535-3.4596-.1499-4.3623-2.2561-1.3535-6.4685-3.0078-13.0858-5.2639-2.557-.9026-4.2113.3009-4.5122,2.8579-.3009,3.4586-.9026,7.52-2.1062,12.3331-1.3535,6.0166-2.8579,11.2805-4.8131,16.3945-3.4596,9.0244-7.3701,16.9963-11.7314,23.9156-1.3545,2.1052-1.5044,3.4586-.6018,4.0604s2.1052.3009,3.7595-1.2035c4.9641-4.6622,10.078-10.5278,15.0411-18.0489,3.1588,12.4841,6.9193,23.0129,11.1306,30.8338-9.4763,12.0333-23.9146,21.9604-43.167,29.4804-2.2571.9026-3.1588,1.9552-2.7079,3.3087Zm51.5907-41.0608c-6.3175-7.9719-11.1306-16.5455-14.4393-26.3226.7517-1.0526,1.9552-3.0078,3.6096-5.7147l.4518-.9026h21.8084c-1.8043,12.4841-5.5648,23.3138-11.4305,32.94Z" style="fill:#31332f; filter:url(#d); stroke-width:0px;"/><path d="m281.2859,174.5608c.6018-8.2727,1.0526-16.5455,1.2035-24.6673v-13.2358c-13.9885,15.6418-31.7365,27.3742-54.1477,35.9478-2.406.9026-3.9105.7517-4.6632-.4518-.7517-1.0526.151-2.557,2.557-4.0604,9.3263-5.7157,17.749-12.4841,25.1191-20.1551,7.9719-7.9719,14.2884-16.2446,19.2524-24.5173h-20.1551c-6.0166.151-12.1832.6018-18.6506,1.5044-2.4071.4518-4.2113-.4508-5.2649-2.7069l-.7517-1.3545c-1.5044-3.0078-.1499-5.113,3.3087-4.8131,4.3623.4518,9.3253.6018,14.8911.7527h38.5048v-29.1795h-23.4637c-6.0166.1499-12.1832.6018-18.6506,1.5044-2.4071.4508-4.2124-.4518-5.2649-2.7079l-.7517-1.3535c-1.5044-3.0078-.151-5.114,3.3087-4.8131,4.3623.4508,9.3253.6018,14.8901.7517h29.9322c0-5.4149-.3009-10.077-.7527-13.8375-.3009-3.1588,1.3545-4.6622,4.3623-3.9105,7.2202,1.6543,11.8823,3.1588,14.5892,4.5122,1.6554.7517,2.7079,3.7605.9026,4.6632l-2.1052,1.3535v7.2191h27.825l2.557-3.6096c1.0536-1.5044,1.5044-2.2561,2.1062-3.0078.3009-.3009.6018-.7527.7517-.9026,2.2561-3.1588,3.4596-4.5122,3.7605-4.5122,1.6543,0,15.342,11.2805,15.342,15.0411,0,.1499.1499,1.2025-1.0526,2.557-.7527.7517-1.6554,1.0526-3.0088,1.0526h-48.281v29.1795h4.6622c1.9552,0,2.8579,1.6543,2.8579,1.2035,0,0,0-.7527.151-1.0536l.4508-1.0526c3.6096-9.9271,5.4149-18.3498,5.8657-26.0207.151-3.0078,1.9552-4.2113,4.9641-3.3087,7.8209,2.557,12.9349,4.3613,15.6428,5.8657,1.8043.9026,2.406,4.0614.4508,4.6622l-3.1588,1.3545c-5.114,6.3165-11.1306,12.4841-17.748,18.3498h20.1551l2.557-3.6096c1.0526-1.5044,1.5034-2.2561,2.1052-3.0088.3009-.3009.6018-.7517.7517-.9026,2.2571-3.1577,3.4596-4.5122,3.7605-4.5122,1.6543,0,15.4919,11.2805,15.4919,15.0411v.151c-.4508,2.406-1.3535,3.4586-3.9105,3.4586h-49.4845c5.4149,6.1676,13.0858,12.0333,23.3138,17.4481,8.4227,4.5122,17.748,7.9719,27.976,10.228,2.557.6018,4.0614,1.6543,3.7605,2.8579-.3009,1.3535-1.5044,2.2561-3.6106,3.3087-4.0604,1.9552-7.0692,5.5648-8.8735,10.3779-1.0536,2.7079-2.7079,3.7605-5.2649,2.4071-18.8006-9.4763-32.6381-24.8182-41.5126-46.6276h-1.3535v15.342c.3009,12.635.6018,22.5621.9026,30.0821.1499,1.9552,0,3.4596-1.5044,4.963-.9026,1.0536-2.2561,1.8053-3.9105,2.557-3.6106,1.6554-6.6184,2.4071-9.3253,2.4071-3.6106,0-4.3623-1.9552-4.3623-4.2113Zm-21.6584-102.7295c-.7527-1.8053-.3009-2.7079-.3009-3.3097v-.9016c0-.6018.1499-1.3545.1499-1.9562.151-.6007.151-1.0526.151-1.5034l.1499-1.6543v-3.3097h-11.7324c-5.5648.151-11.5814.6018-17.4471,1.5044-2.406.3009-4.2113-.4508-5.2639-2.7069l-.7527-1.6554c-1.3535-3.1577,0-4.963,3.3097-4.6622,4.5122.4508,9.4753.6018,15.191.7517h16.6954c0-5.114-.1499-9.4753-.6018-13.3867-.3009-3.0078,1.2035-4.5122,4.3623-3.7595,7.3701,1.6543,12.1832,3.0078,14.5892,4.2113,1.8053.7517,2.4071,3.7605.6018,4.963l-2.557,1.5044v6.4674h29.4804c0-5.114-.1499-9.4753-.6018-13.3867-.3009-3.0078,1.2035-4.5122,4.3623-3.9105,7.52,1.6543,12.4841,3.0088,15.0411,4.2113,1.8043.7527,2.406,3.7605.4508,4.9641l-2.557,1.6543v6.4674h13.0858l3.7595-5.4149,1.3545-1.8043c2.2561-3.1588,3.4596-4.5122,3.7595-4.5122,1.6554,0,14.5903,11.1296,14.5903,14.8901,0,.151.1499,1.2035-1.0526,2.7069-.6018.6018-1.5044.9026-2.8579.9026h-32.6391v2.1062c.1499,1.0526.1499,2.1052.1499,3.4596l.151,1.2025q0,.6018.1499,1.0536c-.1499,2.557-1.5034,3.6096-4.5122,4.5122-3.1577.9026-6.3165,1.3535-9.9271,1.3535-1.6543,0-2.557-.9026-3.0078-1.9552-.6018-1.8053-.1499-2.7079-.1499-3.1588v-.7517c0-.6018.1499-1.2035.1499-1.8053.151-.6018.151-.9026.151-1.3535l.1499-1.5044v-3.1588h-29.4804v2.1062c.151.7517.151,2.1052.151,3.1588,0,.4508,0,.7517.1499,1.0526.151,1.9552.4508,3.6096-.9026,5.114-.7517.6018-1.8043,1.0526-3.3087,1.6543-3.1588.9026-6.3175,1.3535-9.7772,1.3535-1.6543,0-2.406-.7517-2.8569-1.8043Zm-1.2035,44.9723c-1.8053-1.2035-2.2561-2.8579-2.4071-4.9641-.4508-6.3165-2.406-13.2358-6.3165-20.7558-1.2035-2.557-1.5044-4.0614-.9026-4.3623.7517-.4508,1.9552-.3009,4.0604.4508,6.6184,2.4071,11.5825,5.4149,15.4929,10.228,3.0078,3.6106,4.3613,8.4237,3.6096,12.785-.9026,4.5122-3.0078,6.9193-5.8657,7.9719-2.8579.7517-5.114.6018-7.671-1.3535Z" style="fill:#31332f; filter:url(#f); stroke-width:0px;"/><path d="m442.5998,208.6954c-.3009-4.0614-1.0536-6.9193-2.2561-9.1754-1.0536-1.5034-3.3097-3.0078-6.6184-4.0604-2.406-.9026-3.6096-1.8053-3.6096-3.3097,0-1.3535,1.5044-2.2561,4.3613-2.1052,3.1588.1499,6.1676.4508,9.3253.6018,2.2571,0,2.8579-.6018,2.8579-1.3535v-32.4892c-3.1577,2.1062-6.0156,4.0614-8.4227,5.5658,0,0-3.9105,1.6543-4.963-1.6554l-3.7605-12.1822c-.7517-2.557.1499-4.3623,2.8579-5.114,3.6096-1.0536,8.4227-2.4071,14.2884-4.2124v-26.9224h-5.4138c-1.5044.1499-3.1588.2999-4.6632.6007-2.557.7527-4.3623,0-5.5648-2.2561l-.4518-.9016c-1.5034-3.0088-.1499-5.114,3.3097-4.6632,2.1052.1499,4.5122.4508,7.2191.4508h5.5648v-4.0604c0-10.8297-.4508-19.7042-1.3535-27.0743-.4508-3.0078,1.2035-4.5122,4.3623-3.9105,7.3701,1.6543,12.3331,3.0088,15.0411,4.5122,1.6543.9026,2.7069,3.7605.6018,5.114l-2.557,1.6543v23.0129l3.6096-6.4674c1.6543-3.1588,2.7069-4.3623,3.1588-4.3623,1.5034,0,11.8823,11.4315,11.8823,14.7402v.151c-.4518,2.2561-1.2035,3.4596-3.7605,3.4596h-14.8901v21.8084c4.6622-1.3535,8.7236-2.7069,12.0322-3.9105,2.557-.9016,4.2113-.7517,4.5122.151.4518.9026.3009,1.9552-.6018,2.7069-.4508.3009-.7517.6018-1.3535,1.0526-6.3175,5.114-11.2805,8.8745-14.5892,11.2816v45.724c0,7.0692-1.2035,12.3341-3.3097,15.0411-2.8579,3.6096-6.7683,5.4149-12.1832,6.4674-2.7069.4518-4.3613-1.0526-4.6622-3.9105Zm98.0663.9026c-.6018-1.8053-.1499-2.7079-.1499-2.8579v-.3009c.1499-.9026.3009-1.2035.3009-1.3535v-.3009l.1499-.9026v-1.5044h-46.0248l-2.2561,2.8579c-1.5044,1.9552-3.4596,2.4071-5.7157,1.3535l-9.4753-4.3613c-2.7079-1.2035-3.4596-3.3087-1.6554-5.2649,1.0536-1.0526,1.8053-1.8043,2.8579-2.7069v-13.5367c0-4.2113-.1499-7.9719-.4508-11.4315-.3009-3.0078,1.3535-4.5122,4.5122-3.7605,6.7683,1.6554,11.2805,3.0088,13.9885,4.5132,1.6543.9016,2.1052,3.9105.2999,5.113l-2.557,1.6554v18.9515h15.4929v-34.5944h-16.8464c-6.0156.1499-12.1832.6018-18.6506,1.5044-2.406.4508-4.2113-.4518-5.2639-2.7079l-.7527-1.5044c-1.5034-3.1577-.1499-5.114,3.1588-4.8131,4.5122.4518,9.4763.6018,15.0411.7527h23.3138v-17.2972h-13.8375c-6.7683,7.0692-12.9359,12.4841-18.5007,16.2436-1.9552,1.3545-3.4596,1.5044-4.0614,1.0536-.7517-.6018-.3009-1.8053,1.0536-4.2113,2.406-3.9115,4.6622-8.7246,6.9183-13.9885,2.2561-5.2639,3.9105-10.077,5.2649-14.7402.9016-2.7069,1.8043-4.0614,2.557-3.7605.7517.3009,1.2025.7527,1.2025,1.5044,0,.6018-.6018.9026-1.2025.4518-.4518-.3009-.7527-.6018-1.0536-1.0536-.6018-6.0166-2.7069-12.4841-6.6174-20.1551-1.2035-2.406-1.6554-3.9105-1.0536-4.2113.6018-.4508,1.8053-.4508,3.9115.151,7.0692,2.1052,12.0322,4.963,15.6418,9.7761,2.7079,3.6096,3.3097,8.7236,1.5044,12.4841-1.2035,2.2561-2.4071,3.7605-3.9105,4.5122-2.4071,1.2035-4.2113,0-4.2113-.7517s1.9552-.6018,5.114.4508c10.5278,3.4596,13.0848,6.3175,7.8209,7.2202l-3.1588.4508-1.5044,1.9552h34.2935l3.4596-4.6622c.151-.151.3009-.3009.4508-.6018.151-.3009.7527-1.0526.7527-.9026,2.2561-3.0078,3.3087-4.2113,3.6096-4.2113,1.0526,0,14.4393,9.4753,14.4393,13.3867v.1499c-.4508,2.4071-1.3535,3.4596-3.9105,3.4596h-29.3294v17.2972h17.2962l3.7605-5.5658.9026-1.0526c0-.1499.1499-.3009.3009-.6018,2.1052-2.7069,3.1588-3.9105,3.4596-3.9105,1.6543,0,14.8901,10.5289,14.8901,14.2894,0,.1499.151,1.2025-1.0526,2.7069-.6018.6018-1.5044.9026-2.8579.9026h-36.6995v34.5944h15.3409c0-10.228-.4508-18.6506-1.5034-25.7199-.3009-3.1588,1.3535-4.6632,4.5122-3.9115,7.671,1.6554,12.4841,3.0088,15.0411,4.2113,1.6543.9026,2.7069,3.7605.6007,5.114l-2.7069,1.6554v7.2191c.1499,7.8209.3009,14.2894.7517,19.2524,0,1.9552.151,3.6096-1.5034,4.9641-.7527.6007-1.9552,1.0526-3.3097,1.6543-3.4586,1.0526-6.3165,1.5034-9.1744,1.5034-1.8053,0-2.557-.9016-3.0088-2.1052Zm-63.6229-122.5837c13.9885-2.2561,28.4278-5.5658,43.4689-9.6262,8.5726-2.2561,16.0937-4.9641,21.9593-8.1228,2.4071-1.2025,4.3623-.7517,5.8657,1.3545l5.114,6.9183,5.114,5.2649c1.9552,2.1052,2.1062,5.4149-.7517,5.7147-1.6543.151-3.4596-.4508-6.0166-1.6543-10.6788,1.6543-22.862,2.8579-36.6995,3.9115-13.3867.9016-25.8708,1.5034-37.4522,1.6543-2.7069,0-4.0614-.7527-4.3623-2.4071-.3009-1.5044,1.0536-2.557,3.7605-3.0078Zm35.7979,33.5408c-1.8053-1.2025-2.4071-2.8579-2.4071-5.114,0-3.3087-.4508-6.6174-1.6543-10.5278-.9026-2.8579-1.9552-5.7157-3.6096-8.7246-1.2035-2.406-1.5044-3.9105-.7527-4.3613.7527-.4518,1.9562-.3009,4.0614.4508,5.8657,2.4071,10.228,5.4149,13.5367,9.7772,2.7079,3.6096,3.9105,7.9719,3.1588,12.1832-.9026,4.2113-2.8579,6.4674-5.5648,7.52-2.557.7517-4.3623.4508-6.7683-1.2035Zm17.4471,5.7157c-.9026-.6018-.6018-1.9552.3009-4.3613l.3009-.7527c.6018-1.6543.9026-2.2561,1.2035-2.7069,2.1052-5.114,3.7595-10.228,5.114-15.6428,1.0526-4.2113,1.9552-7.8209,2.406-10.8297.6018-3.1588,2.557-4.0604,5.2649-2.557l6.7683,3.7605c3.9105,1.6543,6.4674,2.8579,8.1218,4.8131.6018.7517.9026,3.3087-1.3535,3.9105l-3.4596.7527c-6.6184,9.1744-13.6876,16.3945-20.6059,22.1093-1.9552,1.6554-3.1588,2.1062-4.0614,1.5044Z" style="fill:#31332f; filter:url(#h); stroke-width:0px;"/><path d="m711.9444,192.3648c-11.2805-4.0614-20.306-9.9271-28.1269-18.5007-21.3576,11.7324-37.016,18.5007-64.6911,20.9068-2.557.151-4.0614-.4508-4.5122-1.9552-.4518-1.3535.9026-2.557,3.6096-3.1588,26.1717-5.7157,39.723-15.0411,57.321-27.2243-4.2113-7.52-7.8209-16.6954-10.3779-27.2232h-29.7813v5.7147c0,2.1062-1.5044,3.3097-4.6622,4.6632-3.6106,1.6543-6.7683,2.406-9.9271,2.406-2.8579,0-3.7605-1.6543-3.7605-4.2113.6018-9.4753,1.0526-18.8006,1.2035-28.1259v-15.6428c0-10.3779-.3009-19.1025-1.3545-26.3216-.4508-3.3087,1.5044-4.6632,4.5132-3.4596l15.0401,6.1666h22.863c-.151-4.5122-.151-11.1296-.151-19.5533,0-2.8579,1.6543-4.3613,4.5122-4.2113,7.671.7527,12.4841,1.5044,14.8911,2.2561,1.8043.6018,2.2561,3.6096.4508,4.8131l-2.557,1.8053c0,1.8053,0,4.5122-.1499,7.671v7.2191h26.4716l3.4596-4.0604s1.3535-1.6554,2.7069-3.1588c1.2035-1.3535,1.9552-1.9552,2.1062-1.9552,1.3535,0,15.7928,10.6788,15.7928,14.4393,0,.4508-.4508,1.5034-2.2561,2.8579-1.0526.6007-2.1052,1.0526-3.3087,1.3535v46.4767c0,1.8043.1499,3.4586-1.5044,4.6622-.6018.4518-1.6543.7527-3.0078,1.3535-2.2561,1.0536-4.2113,1.6554-5.8667,2.1062,3.3097,2.2561,5.7157,3.9105,7.2202,5.7157,1.0526,1.2035.6018,3.6096-1.2035,3.7605l-3.3087.1499c-4.0614,4.963-8.7236,9.3253-13.5367,13.0858,4.6622,3.7595,10.3779,6.9183,17.2972,9.0244,1.5034.6018,3.1577.9026,3.9105.7517,1.0526-.1499,1.6543-.6018,2.2561-1.5034,2.406-4.5132,5.114-10.3789,8.1218-17.2972,1.0526-2.4071,1.8053-3.4596,2.1062-3.4596l.6018.1499-2.4071,24.6673c2.8579,2.557,4.5122,4.6632,5.7157,7.3701.7517,1.6543.7517,4.2113,0,5.8657-2.1062,4.9641-5.4149,6.7693-10.228,6.9193-3.6096,0-8.7236-1.0526-15.4919-3.3087Zm-76.5588-90.3964h25.1181c-.2999-4.3623-.6007-10.6788-1.0526-18.9515h-24.0655v18.9515Zm0,26.4716h28.4278c-1.2035-6.0156-2.2561-12.7839-2.7079-19.8532h-25.7199v19.8532Zm68.587-26.4716v-18.9515h-27.5251c0,6.0166.3009,12.3331.7517,18.9515h26.7735Zm0,26.4716v-19.8532h-26.3216c.6018,6.7683,1.6543,13.3857,3.1588,19.8532h23.1629Zm-3.4596,9.9271c1.5044-2.1052,2.557-3.1577,2.8579-3.0078l.6018.4508v-.6007h-21.5085c1.6543,5.4138,3.9105,10.6788,6.9183,15.9427,4.6632-4.6622,8.2727-9.0244,11.1306-12.785Z" style="fill:#31332f; filter:url(#j); stroke-width:0px;"/><path d="m255.4187,214.9689l-27.1647-13.5823,27.1647-13.5823v2.7589l-21.753,10.8234,21.753,10.8765v2.7059Z" style="fill:#31332f; filter:url(#l); stroke-width:0px;"/><path d="m276.624,215l-27.1647-13.5823,27.1647-13.5823v2.7589l-21.753,10.8234,21.753,10.8765v2.7059Zm-2.7059-13.5823l-2.7059,2.7589-2.7059-2.7589,2.7059-2.7059,2.7059,2.7059Z" style="fill:#31332f; filter:url(#n); stroke-width:0px;"/><path d="m280.7119,215l13.5823-27.1647,13.5823,27.1647h-2.7059l-10.8765-21.6999-10.8765,21.6999h-2.7059Zm13.5823-5.4117l-2.7059-2.7059,2.7059-2.7059,2.7059,2.7059-2.7059,2.7059Z" style="fill:#31332f; filter:url(#p); stroke-width:0px;"/><path d="m339.1292,215h-27.1647v-27.1647l2.7059,2.7589v21.6999h21.753l2.7059,2.7059Z" style="fill:#31332f; filter:url(#r); stroke-width:0px;"/><path d="m352.7116,215l-27.1647-13.5823,27.1647-13.5823v2.7589l-21.753,10.8234,21.753,10.8765v2.7059Zm-2.7059-13.5823l-2.7059,2.7589-2.7059-2.7589,2.7059-2.7059,2.7059,2.7059Z" style="fill:#31332f; filter:url(#t); stroke-width:0px;"/><path d="m394.7011,194.9474c11.2158-2.3385,16.1796-8.2565,16.1796-16.4657,0-8.3523-6.0138-13.7932-13.9363-13.7932-.4778,0-1.0022.0479-1.48.0479,1.098,1.4321,2.1481,3.1976,2.1481,5.1068,0,2.3385-.5251,5.202-1.5273,7.9224-2.1002,5.8708-7.589,15.0815-12.6952,15.0815-3.3892,0-6.8251-5.2972-6.8251-11.4062,0-4.8686,2.2906-10.0705,6.5862-13.7453,4.0567-3.5796,8.9246-5.1547,14.1272-5.1547,10.1657,0,17.8492,6.7292,17.8492,16.7998,0,8.0655-5.2499,16.0837-20.1404,17.3248-.6202.0479-1.0022-.2389-1.0974-.7639-.0958-.4771.1903-.8112.8112-.9543Zm-11.0248-6.7292c3.1024,0,7.3495-7.2549,9.1156-11.5026,1.098-2.4336,1.8613-5.2972,1.8613-7.4925,0-1.5273-.5251-2.7683-1.3363-4.1046-3.3407.716-6.5382,2.3864-8.8294,4.7248-3.0066,3.0545-4.7248,6.6341-4.7248,10.6908,0,4.3429,1.8613,7.6842,3.9136,7.6842Z" style="fill:#31332f; filter:url(#v); stroke-width:0px;"/><path d="m603.3792,71.8908v137.5612c0,.8284-.6716,1.5-1.5,1.5h-24.1846c-.8284,0-1.5-.6716-1.5-1.5V71.8908c0-.8284.6716-1.5,1.5-1.5h24.1846c.8284,0,1.5.6716,1.5,1.5Zm-12.9791,21.3045c2.091,0,3.4016-.9759,3.4016-3.0385,0-1.5337-.5303-3.011-1.7008-4.4329.3343-.0554.6686-.0833,1.0313-.0833,3.3732,0,5.1849,2.3415,6.022,4.6555.3902,1.0034.7519,1.7562,1.3931,1.7562.7529,0,1.143-.6411,1.143-1.3381,0-.8921-.3059-1.7283-1.0029-2.76-1.2822-1.8396-3.8477-3.5124-7.1091-3.5124-.8087,0-1.5891.1117-2.3694.3068-.251-.223-.4186-.3627-.6136-.5857-1.1989-1.0872-2.5086-2.3135-2.5086-3.0664,0-1.0592,2.2302-1.9513,3.4566-2.1464.2784-.0559.5853-.0838.8921-.0838.8646-.0559,1.6175-.1113,1.6175-.9759,0-1.7004-1.3106-3.2336-2.9272-4.1256-1.0322-.6411-2.1752-.92-3.3458-1.171-.3343-.0833-.5578.0279-.697.3068-.1117.2789,0,.5294.3343.6691,1.7283.7803,3.1507,1.7842,3.6526,2.7875.251.5019.2226.5578-.2793.92l-.8078.5298c-1.2273.8083-2.9556,1.8954-2.9556,3.2615,0,1.2548,1.0313,2.4811,2.1185,3.708.1401.1672.2793.3622.4186.5015-2.2861.9479-4.5437,2.5929-6.8857,4.2932-1.6724,1.0592-2.1468,1.2822-2.5929,1.2822-.5294,0-1.0588-.6411-1.3381-1.4773-.1108-.3068-.2226-.474-.3618-.474-.1401,0-.3068.1392-.3627.474-.0833.3622-.1392.7249-.1392,1.1151,0,1.5053,1.7558,3.1502,2.7037,3.1502.5853,0,.9763-.5298,1.4773-1.1151.2235-.2789.4186-.5298.7529-.8362l.7803-.7529c1.0597.5578,1.9518.92,2.8164,1.2543.1951.1117.446.1955.6127.2789,1.3106.5019,2.2861.7249,3.3732.7249Zm-6.0211-2.9831c2.0067-1.8121,3.9301-3.2615,5.9093-4.0423.9479,1.3661,1.3106,2.314,1.3106,3.4012,0,1.0592-.6411,1.7004-2.4537,1.7004-1.5048,0-3.289-.5015-4.7663-1.0592Zm6.3554,31.3578c.1117.2784.3352.3902.697.2784,7.0533-1.7562,9.702-5.2128,9.702-9.2271,0-3.7913-3.2899-6.3842-6.8023-6.3842-2.7321,0-5.1574,1.0872-7.666,2.6488.3343-.446.7519-.8921,1.143-1.3106.3059-.3622.6411-.6691.6127-1.0872,0-.474-.6127-1.0592-1.0597-1.3102-.0275-.0279,0-.0279-.055-.0559h-.0284c.1392-.7245.3343-1.3381.446-1.7562.1117-.446.2793-.8083.3902-1.0592.1392-.3348.2235-.5573.2235-.8921,0-.9759-1.4773-2.2581-2.7321-2.2581-.4735,0-.9205.0838-1.3381.223-.3068.0838-.4744.251-.446.5298,0,.251.1676.446.5019.5294.4176.1117.7803.223,1.0038.3348.5294.1951.6686.3064.6686.7803,0,.8087-.1951,2.2861-.4186,4.0982-1.3372.6411-3.7634,1.7283-4.432,1.7283-.4735,0-.7803-.251-1.1156-.7524-.1667-.2789-.3343-.3906-.446-.3627-.1108.0559-.1951.1951-.1951.3906,0,.3343,0,.7245.0843,1.0313.3618,1.1151,1.5607,2.1743,2.3969,2.1743.251,0,.4744-.251.697-.5019.1676-.1672.2793-.2784.5578-.4735.5294-.3348,1.394-.8367,2.2577-1.3381l-.0833.9196c-.0275.3068-.0559.5857-.1117.92-1.7842,2.8434-4.4879,6.3563-5.6584,7.6106-.4744.5019-.6695.9759-.6695,1.5891,0,.7249.446,1.1989.8646,1.171.4735,0,.8078-.3906,1.1705-.9759.3068-.4181.6695-1.0034,1.0313-1.5611l.3902-.5573c.7529,1.1151,1.4499,2.4253,1.6733,3.0385.251.697.3618,1.1989.501,1.84.1401.7249.446,1.0872,1.0872,1.0872.8087,0,1.3106-1.4219,1.3106-2.5091,0-.5294-.0559-.9479-.1117-1.4494-.0275-.1676-.0275-.3348-.0559-.5019-.0275-.2789-.0275-.6132-.055-.9759-.1117-1.6724-.2793-4.2374-.1676-6.6068,1.8959-1.6449,4.7672-3.1223,7.4434-3.1223,2.9831,0,4.7672,2.1185,4.7672,4.5717,0,2.9831-1.2548,6.2725-7.6111,8.8654-.3343.1392-.4735.3902-.3627.6691Zm-7.9444-5.6034l2.2577-3.5124c-.0559,1.6724-.0559,3.3448-.0275,4.5717v1.0872c-.0284.2789-.2235.3068-.446.1117-.0559-.0838-.1676-.1955-.2793-.3348-.3902-.474-1.0313-1.2822-1.5048-1.9234Zm3.2322,15.4843c-.2143.0843-.4039.1768-.5715.2793-.1676.1017-.348.2464-.544.4314-.1951.1859-.4973.4561-.9058.8087v1.143c.2418-.0183.4323-.033.5715-.0421s.2793-.0421.4186-.098c.1392-.055.3068-.1392.5019-.25.1951-.1117.4781-.2977.8499-.5578l.4735-.1676c.3526-.0559.6365-.0559.8499,0s.534.1676.9617.3343c.446.1493.8408.3444,1.1852.5862.3435.2409.7199.4735,1.1284.6961.3719.131.7153.2052,1.0313.2235s.6136,0,.8921-.0559.5431-.1392.7941-.251.5156-.2226.795-.3343c.3526-.316.599-.5669.7382-.7529.1392-.185.283-.4176.4323-.697.1484-.1484.218-.3242.2088-.5294-.0092-.2042-.0137-.3801-.0137-.5294l-.3627-.1676c-.1301-.0925-.5294.0843-1.198.5303-.6695.4277-1.2456.6778-1.7283.7519-.4836.0751-.9296.0467-1.3381-.0833-.3719-.1484-.7382-.3719-1.1009-.6686-.3627-.2977-.7758-.5303-1.2401-.697-.4277-.1859-.7666-.2739-1.0176-.2647s-.5349.0046-.8499-.0147c-.4277.1676-.7483.2931-.9617.3764Zm4.378,32.4676c2.091,0,3.4016-.9754,3.4016-3.0389,0-1.5332-.5303-3.0105-1.7008-4.432.3343-.0559.6686-.0843,1.0313-.0843,3.3732,0,5.1849,2.3419,6.022,4.6555.3902,1.0038.7519,1.7567,1.3931,1.7567.7529,0,1.143-.6411,1.143-1.3381,0-.8921-.3059-1.7283-1.0029-2.7596-1.2822-1.84-3.8477-3.5124-7.1091-3.5124-.8087,0-1.5891.1108-2.3694.3059-.251-.2226-.4186-.3618-.6136-.5853-1.1989-1.0872-2.5086-2.3135-2.5086-3.0664,0-1.0597,2.2302-1.9518,3.4566-2.1468.2784-.055.5853-.0833.8921-.0833.8646-.0559,1.6175-.1117,1.6175-.9754,0-1.7008-1.3106-3.234-2.9272-4.1261-1.0322-.6411-2.1752-.9196-3.3458-1.1705-.3343-.0843-.5578.0275-.697.3059-.1117.2793,0,.5303.3343.6695,1.7283.7803,3.1507,1.7842,3.6526,2.788.251.5019.2226.5569-.2793.9196l-.8078.5294c-1.2273.8087-2.9556,1.8959-2.9556,3.2624,0,1.2539,1.0313,2.4811,2.1185,3.7075.1401.1667.2793.3627.4186.5019-2.2861.9479-4.5437,2.592-6.8857,4.2928-1.6724,1.0597-2.1468,1.2822-2.5929,1.2822-.5294,0-1.0588-.6411-1.3381-1.4773-.1108-.3068-.2226-.4735-.3618-.4735-.1401,0-.3068.1392-.3627.4735-.0833.3627-.1392.7245-.1392,1.1156,0,1.5048,1.7558,3.1498,2.7037,3.1498.5853,0,.9763-.5294,1.4773-1.1156.2235-.2784.4186-.5294.7529-.8362l.7803-.7529c1.0597.5578,1.9518.9205,2.8164,1.2548.1951.1117.446.1951.6127.2793,1.3106.501,2.2861.7245,3.3732.7245Zm-6.0211-2.9831c2.0067-1.8116,3.9301-3.2615,5.9093-4.0418.9479,1.3656,1.3106,2.3135,1.3106,3.4007,0,1.0597-.6411,1.7008-2.4537,1.7008-1.5048,0-3.289-.5019-4.7663-1.0597Zm6.3554,31.3574c.1117.2784.3352.3902.697.2784,7.0533-1.7558,9.702-5.2133,9.702-9.2276,0-3.7909-3.2899-6.3838-6.8023-6.3838-2.7321,0-5.1574,1.0872-7.666,2.6488.3343-.446.7519-.8921,1.143-1.3106.3059-.3627.6411-.6686.6127-1.0872,0-.4735-.6127-1.0597-1.0597-1.3097-.0275-.0284,0-.0284-.055-.0559h-.0284c.1392-.7254.3343-1.3381.446-1.7567.1117-.446.2793-.8087.3902-1.0588.1392-.3352.2235-.5578.2235-.8921,0-.9763-1.4773-2.2586-2.7321-2.2586-.4735,0-.9205.0833-1.3381.2235-.3068.0833-.4744.251-.446.5294,0,.251.1676.446.5019.5294.4176.1117.7803.2235,1.0038.3343.5294.1951.6686.3068.6686.7813,0,.8078-.1951,2.2861-.4186,4.0977-1.3372.6411-3.7634,1.7283-4.432,1.7283-.4735,0-.7803-.251-1.1156-.7529-.1667-.2784-.3343-.3902-.446-.3618-.1108.055-.1951.1951-.1951.3902,0,.3343,0,.7245.0843,1.0313.3618,1.1146,1.5607,2.1743,2.3969,2.1743.251,0,.4744-.251.697-.5019.1676-.1667.2793-.2784.5578-.4735.5294-.3343,1.394-.8362,2.2577-1.3381l-.0833.9196c-.0275.3068-.0559.5853-.1117.9205-1.7842,2.8429-4.4879,6.3554-5.6584,7.6101-.4744.5019-.6695.9754-.6695,1.5891,0,.7245.446,1.1989.8646,1.1705.4735,0,.8078-.3902,1.1705-.9754.3068-.4176.6695-1.0038,1.0313-1.5607l.3902-.5578c.7529,1.1146,1.4499,2.4253,1.6733,3.038.251.697.3618,1.1989.501,1.84.1401.7254.446,1.0872,1.0872,1.0872.8087,0,1.3106-1.4215,1.3106-2.5086,0-.5294-.0559-.9479-.1117-1.4499-.0275-.1667-.0275-.3343-.0559-.5019-.0275-.2784-.0275-.6127-.055-.9754-.1117-1.6724-.2793-4.2369-.1676-6.6072,1.8959-1.644,4.7672-3.1223,7.4434-3.1223,2.9831,0,4.7672,2.1194,4.7672,4.5721,0,2.9831-1.2548,6.2729-7.6111,8.8649-.3343.1401-.4735.3902-.3627.6695Zm-7.9444-5.6034l2.2577-3.5124c-.0559,1.6724-.0559,3.3448-.0275,4.5712v1.0881c-.0284.2784-.2235.3059-.446.1108-.0559-.0833-.1676-.1951-.2793-.3343-.3902-.4735-1.0313-1.2822-1.5048-1.9234Zm3.2322,15.4841c-.2143.0843-.4039.1768-.5715.2793-.1676.1017-.348.2464-.544.4314-.1951.1859-.4973.4561-.9058.8087v1.143c.2418-.0183.4323-.033.5715-.0421s.2793-.0421.4186-.098c.1392-.055.3068-.1392.5019-.25.1951-.1117.4781-.2977.8499-.5578l.4735-.1676c.3526-.0559.6365-.0559.8499,0s.534.1676.9617.3343c.446.1493.8408.3444,1.1852.5862.3435.2409.7199.4735,1.1284.6961.3719.131.7153.2052,1.0313.2235s.6136,0,.8921-.0559.5431-.1392.7941-.251.5156-.2226.795-.3343c.3526-.316.599-.5669.7382-.7529.1392-.185.283-.4176.4323-.697.1484-.1484.218-.3242.2088-.5294-.0092-.2042-.0137-.3801-.0137-.5294l-.3627-.1676c-.1301-.0925-.5294.0843-1.198.5303-.6695.4277-1.2456.6778-1.7283.7519-.4836.0751-.9296.0467-1.3381-.0833-.3719-.1484-.7382-.3719-1.1009-.6686-.3627-.2977-.7758-.5303-1.2401-.697-.4277-.1859-.7666-.2739-1.0176-.2647s-.5349.0046-.8499-.0147c-.4277.1676-.7483.2931-.9617.3764Z" style="fill:#31332f; filter:url(#x); stroke-width:0px;"/><g style="filter:url(#z);"><path d="m626.2005,202.3019h-2.5392c-3.5065,0-6.349,2.8426-6.349,6.349h0c0,3.5065,2.8426,6.349,6.349,6.349h2.5392c.3509,0,.6353-.2845.6353-.6353v-1.9038c0-.3509-.2845-.6353-.6353-.6353h-2.5392c-1.7532,0-3.1745-1.4213-3.1745-3.1745h0c0-1.7532,1.4213-3.1745,3.1745-3.1745h2.5392c.3509,0,.6353-.2845.6353-.6353v-1.9038c0-.3509-.2845-.6353-.6353-.6353Z" style="fill:#31332f; stroke-width:0px;"/><path d="m633.187,206.7479c0,.1678.14.3169.317.3169h5.3969c.3448,0,.6338.2796.6338.6338v1.9015c0,.3542-.289.6338-.6338.6338h-5.3969c-.177,0-.317.1492-.317.3263,0,.6991.5687,1.2676,1.2678,1.2676h4.4461c.3448,0,.6338.2796.6338.6338v1.9015c0,.3542-.289.6339-.6338.6339h-4.4461c-.345,0-.6897-.0373-1.0067-.1212-1.6498-.3729-2.9454-1.6685-3.3183-3.3183l-.0091-.0093c-.0746-.3169-.112-.6432-.112-.988v-3.8217c0-.3355.0373-.6618.112-.9787.3727-1.6591,1.6683-2.9641,3.3368-3.3369,0,0,0-.0093.0093-.0093.317-.0746.6431-.1119.9881-.1119h4.4461c.3448,0,.6338.2797.6338.6339v1.9108c0,.3449-.289.6338-.6338.6338h-4.4461c-.6991,0-1.2678.5592-1.2678,1.2676Z" style="fill:#31332f; stroke-width:0px;"/><path d="m642.7084,214.378v-7.2996c0-2.638,2.1386-4.7765,4.7766-4.7764h0c3.4983.0001,6.3342,2.8361,6.3342,6.3344v5.7416c0,.3436-.2785.6221-.6221.6221h-1.9299c-.3435,0-.622-.2785-.622-.622v-1.9359c0-.1669-.1353-.3021-.3021-.3021h-2.2522c-.3422,0-.6197-.2774-.6197-.6197v-1.9351c0-.3423.2775-.6198.6198-.6198h2.2398c.1737,0,.3145-.1408.3145-.3145v.0031c0-1.7549-1.4224-3.1776-3.1771-3.1776h0c-.8757,0-1.5857.7099-1.5857,1.5857v7.3158c0,.3436-.2785.6221-.6221.6221h-1.9299c-.3435,0-.622-.2785-.622-.622Z" style="fill:#31332f; stroke-width:0px;"/><path d="m656.9938,202.9356v8.5714c0,1.9292,1.5639,3.493,3.493,3.493h2.2223c.35,0,.6337-.2837.6337-.6337v-1.9072c0-.35-.2837-.6337-.6337-.6337h-2.2264c-.1737,0-.3145-.1408-.3145-.3145v-8.5754c0-.35-.2837-.6337-.6337-.6337h-1.9072c-.35,0-.6337.2837-.6337.6337Z" style="fill:#31332f; stroke-width:0px;"/><path d="m669.6945,206.7495c0,.1678.14.3169.317.3169h5.3969c.3448,0,.6338.2796.6338.6338v1.9015c0,.3542-.289.6338-.6338.6338h-5.3969c-.177,0-.317.1492-.317.3263,0,.6991.5687,1.2676,1.2678,1.2676h4.4461c.3448,0,.6338.2796.6338.6338v1.9015c0,.3542-.289.6339-.6338.6339h-4.4461c-.345,0-.6897-.0373-1.0067-.1212-1.6498-.3729-2.9454-1.6685-3.3183-3.3183l-.0091-.0093c-.0746-.3169-.112-.6432-.112-.988v-3.8217c0-.3355.0373-.6618.112-.9787.3727-1.6591,1.6683-2.9641,3.3368-3.3369,0,0,0-.0093.0093-.0093.317-.0746.6431-.1119.9881-.1119h4.4461c.3448,0,.6338.2797.6338.6339v1.9108c0,.3449-.289.6338-.6338.6338h-4.4461c-.6991,0-1.2678.5592-1.2678,1.2676Z" style="fill:#31332f; stroke-width:0px;"/><circle cx="680.8027" cy="213.4127" r="1.5873" style="fill:#31332f; stroke-width:0px;"/><path d="m698.2665,205.7971v8.566c0,.3542-.289.6339-.6431.6339h-1.9109c-.1304,0-.2517-.0373-.3543-.1026-.0651-.0559-.1117-.1025-.1677-.1678,0,0-.0093,0,0-.0093-.0653-.1025-.1024-.2237-.1024-.3542v-8.5753c0-.1678-.14-.3076-.317-.3076h-.9601c-.1677,0-.3074.1398-.3074.3076v5.3969c0,.3542-.289.6432-.6433.6432h-1.8922c-.3541,0-.6431-.2889-.6431-.6432v-5.3969c0-.1678-.1397-.3076-.3168-.3076h-.9508c-.1773,0-.317.1398-.317.3076v8.5753c0,.0467,0,.0839-.0093.1305s-.028.0839-.0373.1305c-.0373.0653-.0837.1305-.1397.1864-.028.0279-.056.0559-.084.0839-.1026.0559-.233.1026-.3634.1026h-1.9109c-.345,0-.6338-.2797-.6338-.6339v-8.566c0-1.9294,1.5659-3.4954,3.4954-3.4954h5.7137c1.9295,0,3.4954,1.566,3.4954,3.4954Z" style="fill:#31332f; stroke-width:0px;"/><path d="m710.9606,208.651h0c0,1.7532-1.4213,3.1745-3.1745,3.1745h0c-1.7532,0-3.1745-1.4213-3.1745-3.1745h0c0-1.7532,1.4213-3.1745,3.1745-3.1745h0c1.7532,0,3.1745,1.4213,3.1745,3.1745h0Zm3.1745,0h0c0-3.5065-2.8426-6.349-6.349-6.349h0c-3.5065,0-6.349,2.8426-6.349,6.349h0c0,3.5065,2.8426,6.349,6.349,6.349h0c3.5065,0,6.349-2.8426,6.349-6.349h0Z" style="fill:#31332f; stroke-width:0px;"/><path d="m720.4868,206.7479c0,.1678.14.3169.317.3169h5.3969c.3448,0,.6338.2796.6338.6338v1.9015c0,.3542-.289.6338-.6338.6338h-5.3969c-.177,0-.317.1492-.317.3263,0,.6991.5687,1.2676,1.2678,1.2676h4.4461c.3448,0,.6338.2796.6338.6338v1.9015c0,.3542-.289.6339-.6338.6339h-4.4461c-.345,0-.6897-.0373-1.0067-.1212-1.6498-.3729-2.9454-1.6685-3.3183-3.3183l-.0091-.0093c-.0746-.3169-.112-.6432-.112-.988v-3.8217c0-.3355.0373-.6618.112-.9787.3727-1.6591,1.6683-2.9641,3.3368-3.3369,0,0,0-.0093.0093-.0093.317-.0746.6431-.1119.9881-.1119h4.4461c.3448,0,.6338.2797.6338.6339v1.9108c0,.3449-.289.6338-.6338.6338h-4.4461c-.6991,0-1.2678.5592-1.2678,1.2676Z" style="fill:#31332f; stroke-width:0px;"/></g></svg>