<svg id="a" xmlns="http://www.w3.org/2000/svg" width="500" height="500" viewBox="0 0 500 500"><path class="b" d="m138.33,181.5c16.17,0,24.56,4.98,23.83,15.34l-1.55,15.75h1.25c24.15-20.31,49.52-36.9,79.78-36.9,33.16,0,49.72,7.08,55.99,21.39,22.24-18.62,51.79-21.39,81.64-21.39,49.74,0,63.71,34.82,50.27,93.27l-26.59,115.65c-4.29,18.65-17.03,29.01-35.69,29.01h-2.48c-18.66,0-26.64-10.36-22.35-29.01l24.87-108.19c8.29-36.06.79-48.5-21.19-48.5-13.26,0-30.09,8.29-50.77,26.11l-30.02,130.58c-4.29,18.65-17.03,29.01-35.69,29.01h-2.49c-18.65,0-26.64-10.36-22.35-29.01l24.87-108.19c8.29-36.06.79-48.5-21.6-48.5-13.26,0-30.09,8.29-50.36,26.11l-30.02,130.58c-4.29,18.65-17.03,29.01-35.69,29.01h-2.9c-18.65,0-26.64-10.36-22.35-29.01l40.02-174.11c4.29-18.65,15.38-29.01,31.54-29.01Z"/><path class="b" d="m401.94,94.97c0,2.24-.81,4.43-2.53,6.1l-93.66,93.72c-2.07,2.07-4.95,2.82-7.66,2.3,0,.06-.11,0-.11,0-.52.12-1.04.17-1.55.17-2.19,0-4.43-.81-6.1-2.48l-93.66-93.72c-3.4-3.34-3.4-8.81,0-12.2,1.67-1.67,3.86-2.48,6.1-2.48s4.38.81,6.1,2.48l89.17,89.17,89.17-89.17c3.4-3.34,8.87-3.34,12.2,0,1.73,1.67,2.53,3.91,2.53,6.1Z"/></svg>